<?xml version="1.0" encoding="UTF-8" standalone="no"?>
<!-- Created with Inkscape (http://www.inkscape.org/) -->

<svg
   xmlns:dc="http://purl.org/dc/elements/1.1/"
   xmlns:cc="http://creativecommons.org/ns#"
   xmlns:rdf="http://www.w3.org/1999/02/22-rdf-syntax-ns#"
   xmlns:svg="http://www.w3.org/2000/svg"
   xmlns="http://www.w3.org/2000/svg"
   xmlns:sodipodi="http://sodipodi.sourceforge.net/DTD/sodipodi-0.dtd"
   xmlns:inkscape="http://www.inkscape.org/namespaces/inkscape"
   inkscape:version="0.48.4 r9939"
   version="1.1"
   id="svg2"
   height="1052.3622047"
   width="744.09448819"
   sodipodi:docname="sierpenski-triangle.svg">
  <sodipodi:namedview
     id="base"
     pagecolor="#ffffff"
     bordercolor="#666666"
     borderopacity="1.0"
     inkscape:pageopacity="0.0"
     inkscape:pageshadow="2"
     inkscape:zoom="6.9716309"
     inkscape:cx="347.28719"
     inkscape:cy="513.96942"
     inkscape:document-units="px"
     inkscape:current-layer="svg2"
     showgrid="false"
     inkscape:window-width="988"
     inkscape:window-height="818"
     inkscape:window-x="21"
     inkscape:window-y="123"
     inkscape:window-maximized="0" />
  <defs
     id="defs4" />
  <metadata
     id="metadata7">
    <rdf:RDF>
      <cc:Work
         rdf:about="">
        <dc:format>image/svg+xml</dc:format>
        <dc:type
           rdf:resource="http://purl.org/dc/dcmitype/StillImage" />
        <dc:title></dc:title>
      </cc:Work>
    </rdf:RDF>
  </metadata>
  <g
     id="layer1"
     inkscape:groupmode="layer"
     inkscape:label="Layer 1" />
  <path
     id="path3738"
     d="M375.0,565.8357147L375.0,563.8357147L373.267949192,562.8357147L371.535898385,563.8357147L369.803847577,562.8357147L369.803847577,560.8357147L371.535898385,559.8357147L373.267949192,560.8357147L375.0,559.8357147L375.0,557.8357147L373.267949192,556.8357147L373.267949192,554.8357147L375.0,553.8357147L375.0,551.8357147L373.267949192,550.8357147L371.535898385,551.8357147L371.535898385,553.8357147L369.803847577,554.8357147L368.07179677,553.8357147L366.339745962,554.8357147L366.339745962,556.8357147L368.07179677,557.8357147L368.07179677,559.8357147L366.339745962,560.8357147L364.607695155,559.8357147L364.607695155,557.8357147L362.875644347,556.8357147L361.143593539,557.8357147L359.411542732,556.8357147L359.411542732,554.8357147L361.143593539,553.8357147L361.143593539,551.8357147L359.411542732,550.8357147L357.679491924,551.8357147L357.679491924,553.8357147L355.947441117,554.8357147L354.215390309,553.8357147L354.215390309,551.8357147L352.483339502,550.8357147L350.751288694,551.8357147L349.019237886,550.8357147L349.019237886,548.8357147L350.751288694,547.8357147L352.483339502,548.8357147L354.215390309,547.8357147L354.215390309,545.8357147L355.947441117,544.8357147L357.679491924,545.8357147L357.679491924,547.8357147L359.411542732,548.8357147L361.143593539,547.8357147L361.143593539,545.8357147L359.411542732,544.8357147L359.411542732,542.8357147L361.143593539,541.8357147L362.875644347,542.8357147L364.607695155,541.8357147L364.607695155,539.8357147L366.339745962,538.8357147L368.07179677,539.8357147L368.07179677,541.8357147L366.339745962,542.8357147L366.339745962,544.8357147L368.07179677,545.8357147L369.803847577,544.8357147L371.535898385,545.8357147L371.535898385,547.8357147L373.267949192,548.8357147L375.0,547.8357147L375.0,545.8357147L373.267949192,544.8357147L373.267949192,542.8357147L375.0,541.8357147L375.0,539.8357147L373.267949192,538.8357147L371.535898385,539.8357147L369.803847577,538.8357147L369.803847577,536.8357147L371.535898385,535.8357147L373.267949192,536.8357147L375.0,535.8357147L375.0,533.8357147L373.267949192,532.8357147L373.267949192,530.8357147L375.0,529.8357147L375.0,527.8357147L373.267949192,526.8357147L371.535898385,527.8357147L371.535898385,529.8357147L369.803847577,530.8357147L368.07179677,529.8357147L368.07179677,527.8357147L366.339745962,526.8357147L364.607695155,527.8357147L362.875644347,526.8357147L362.875644347,524.8357147L364.607695155,523.8357147L366.339745962,524.8357147L368.07179677,523.8357147L368.07179677,521.8357147L369.803847577,520.8357147L371.535898385,521.8357147L371.535898385,523.8357147L373.267949192,524.8357147L375.0,523.8357147L375.0,521.8357147L373.267949192,520.8357147L373.267949192,518.8357147L375.0,517.8357147L375.0,515.8357147L373.267949192,514.8357147L371.535898385,515.8357147L369.803847577,514.8357147L369.803847577,512.8357147L371.535898385,511.8357147L373.267949192,512.8357147L375.0,511.8357147L375.0,509.8357147L373.267949192,508.8357147L373.267949192,506.8357147L375.0,505.8357147L375.0,503.8357147L373.267949192,502.8357147L371.535898385,503.8357147L371.535898385,505.8357147L369.803847577,506.8357147L368.07179677,505.8357147L366.339745962,506.8357147L366.339745962,508.8357147L368.07179677,509.8357147L368.07179677,511.8357147L366.339745962,512.8357147L364.607695155,511.8357147L364.607695155,509.8357147L362.875644347,508.8357147L361.143593539,509.8357147L361.143593539,511.8357147L359.411542732,512.8357147L357.679491924,511.8357147L355.947441117,512.8357147L355.947441117,514.8357147L357.679491924,515.8357147L359.411542732,514.8357147L361.143593539,515.8357147L361.143593539,517.8357147L359.411542732,518.8357147L359.411542732,520.8357147L361.143593539,521.8357147L361.143593539,523.8357147L359.411542732,524.8357147L357.679491924,523.8357147L357.679491924,521.8357147L355.947441117,520.8357147L354.215390309,521.8357147L352.483339502,520.8357147L352.483339502,518.8357147L354.215390309,517.8357147L354.215390309,515.8357147L352.483339502,514.8357147L350.751288694,515.8357147L350.751288694,517.8357147L349.019237886,518.8357147L347.287187079,517.8357147L345.555136271,518.8357147L345.555136271,520.8357147L347.287187079,521.8357147L347.287187079,523.8357147L345.555136271,524.8357147L343.823085464,523.8357147L343.823085464,521.8357147L342.091034656,520.8357147L340.358983849,521.8357147L340.358983849,523.8357147L338.626933041,524.8357147L336.894882233,523.8357147L335.162831426,524.8357147L335.162831426,526.8357147L336.894882233,527.8357147L338.626933041,526.8357147L340.358983849,527.8357147L340.358983849,529.8357147L342.091034656,530.8357147L343.823085464,529.8357147L343.823085464,527.8357147L345.555136271,526.8357147L347.287187079,527.8357147L347.287187079,529.8357147L345.555136271,530.8357147L345.555136271,532.8357147L347.287187079,533.8357147L347.287187079,535.8357147L345.555136271,536.8357147L343.823085464,535.8357147L342.091034656,536.8357147L342.091034656,538.8357147L343.823085464,539.8357147L345.555136271,538.8357147L347.287187079,539.8357147L347.287187079,541.8357147L345.555136271,542.8357147L345.555136271,544.8357147L347.287187079,545.8357147L347.287187079,547.8357147L345.555136271,548.8357147L343.823085464,547.8357147L343.823085464,545.8357147L342.091034656,544.8357147L340.358983849,545.8357147L338.626933041,544.8357147L338.626933041,542.8357147L340.358983849,541.8357147L340.358983849,539.8357147L338.626933041,538.8357147L336.894882233,539.8357147L336.894882233,541.8357147L335.162831426,542.8357147L333.430780618,541.8357147L333.430780618,539.8357147L331.698729811,538.8357147L329.966679003,539.8357147L328.234628196,538.8357147L328.234628196,536.8357147L329.966679003,535.8357147L331.698729811,536.8357147L333.430780618,535.8357147L333.430780618,533.8357147L331.698729811,532.8357147L331.698729811,530.8357147L333.430780618,529.8357147L333.430780618,527.8357147L331.698729811,526.8357147L329.966679003,527.8357147L329.966679003,529.8357147L328.234628196,530.8357147L326.502577388,529.8357147L324.770526581,530.8357147L324.770526581,532.8357147L326.502577388,533.8357147L326.502577388,535.8357147L324.770526581,536.8357147L323.038475773,535.8357147L323.038475773,533.8357147L321.306424965,532.8357147L319.574374158,533.8357147"
     style="stroke-linejoin:miter;stroke-opacity:1.0;fill-opacity:1.0;stroke:#000000;stroke-linecap:butt;stroke-width:1.0px;fill:none" />
</svg>
