<?xml version="1.0" encoding="UTF-8" standalone="no"?>
<!-- Created with Inkscape (http://www.inkscape.org/) -->

<svg
   xmlns:dc="http://purl.org/dc/elements/1.1/"
   xmlns:cc="http://creativecommons.org/ns#"
   xmlns:rdf="http://www.w3.org/1999/02/22-rdf-syntax-ns#"
   xmlns:svg="http://www.w3.org/2000/svg"
   xmlns="http://www.w3.org/2000/svg"
   version="1.1"
   width="563.1875"
   height="487.71875"
   id="svg3038">
  <defs
     id="defs3040" />
  <metadata
     id="metadata3043">
    <rdf:RDF>
      <cc:Work
         rdf:about="">
        <dc:format>image/svg+xml</dc:format>
        <dc:type
           rdf:resource="http://purl.org/dc/dcmitype/StillImage" />
        <dc:title></dc:title>
      </cc:Work>
    </rdf:RDF>
  </metadata>
  <g
     transform="translate(-122.28125,-279.78125)"
     id="layer1" />
  <path
     d="m 141.29018,486.86666 0,-2 -1.73205,-1 1.73205,-1 0,-2 -1.73205,-1 -1.73205,1 0,-2 -1.73205,-1 1.73205,-1 0,-2 1.73205,1 1.73205,-1 0,-2 -1.73205,-1 1.73205,-1 0,-2 -1.73205,-1 -1.73205,1 0,-2 -1.73205,-1 -1.73205,1 0,2 -1.73205,-1 -1.73205,1 0,-2 -1.73206,-1 1.73206,-1 0,-2 -1.73206,-1 -1.73205,1 0,-2 -1.73205,-1 1.73205,-1 0,-2 1.73205,1 1.73206,-1 0,-2 -1.73206,-1 1.73206,-1 0,-2 1.73205,1 1.73205,-1 0,2 1.73205,1 1.73205,-1 0,-2 1.73205,1 1.73205,-1 0,-2 -1.73205,-1 1.73205,-1 0,-2 -1.73205,-1 -1.73205,1 0,-2 -1.73205,-1 1.73205,-1 0,-2 1.73205,1 1.73205,-1 0,-2 -1.73205,-1 1.73205,-1 0,-2 -1.73205,-1 -1.73205,1 0,-2 -1.73205,-1 -1.73205,1 0,2 -1.73205,-1 -1.73205,1 0,-2 -1.73206,-1 1.73206,-1 0,-2 -1.73206,-1 -1.73205,1 0,-2 -1.73205,-1 -1.73205,1 0,2 -1.73205,-1 -1.73205,1 0,2 1.73205,1 -1.73205,1 0,2 -1.73205,-1 -1.73205,1 0,-2 -1.73205,-1 -1.73205,1 0,2 -1.73205,-1 -1.73205,1 0,-2 -1.73206,-1 1.73206,-1 0,-2 -1.73206,-1 -1.73205,1 0,-2 -1.73205,-1 1.73205,-1 0,-2 1.73205,1 1.73206,-1 0,-2 -1.73206,-1 1.73206,-1 0,-2 -1.73206,-1 -1.73205,1 0,-2 -1.73205,-1 -1.73205,1 0,2 -1.73205,-1 -1.73205,1 0,-2 -1.73205,-1 1.73205,-1 0,-2 -1.73205,-1 -1.73205,1 0,-2 -1.73205,-1 1.73205,-1 0,-2 1.73205,1 1.73205,-1 0,-2 -1.73205,-1 1.73205,-1 0,-2 1.73205,1 1.73205,-1 0,2 1.73205,1 1.73205,-1 0,-2 1.73205,1 1.73206,-1 0,-2 -1.73206,-1 1.73206,-1 0,-2 -1.73206,-1 -1.73205,1 0,-2 -1.73205,-1 1.73205,-1 0,-2 1.73205,1 1.73206,-1 0,-2 -1.73206,-1 1.73206,-1 0,-2 1.73205,1 1.73205,-1 0,2 1.73205,1 1.73205,-1 0,-2 1.73205,1 1.73205,-1 0,2 1.73205,1 -1.73205,1 0,2 1.73205,1 1.73205,-1 0,2 1.73205,1 1.73205,-1 0,-2 1.73205,1 1.73206,-1 0,-2 -1.73206,-1 1.73206,-1 0,-2 1.73205,1 1.73205,-1 0,2 1.73205,1 1.73205,-1 0,-2 1.73205,1 1.73205,-1 0,-2 -1.73205,-1 1.73205,-1 0,-2 -1.73205,-1 -1.73205,1 0,-2 -1.73205,-1 1.73205,-1 0,-2 1.73205,1 1.73205,-1 0,-2 -1.73205,-1 1.73205,-1 0,-2 -1.73205,-1 -1.73205,1 0,-2 -1.73205,-1 -1.73205,1 0,2 -1.73205,-1 -1.73205,1 0,-2 -1.73206,-1 1.73206,-1 0,-2 -1.73206,-1 -1.73205,1 0,-2 -1.73205,-1 1.73205,-1 0,-2 1.73205,1 1.73206,-1 0,-2 -1.73206,-1 1.73206,-1 0,-2 1.73205,1 1.73205,-1 0,2 1.73205,1 1.73205,-1 0,-2 1.73205,1 1.73205,-1 0,-2 -1.73205,-1 1.73205,-1 0,-2 -1.73205,-1 -1.73205,1 0,-2 -1.73205,-1 1.73205,-1 0,-2 1.73205,1 1.73205,-1 0,-2 -1.73205,-1 1.73205,-1 0,-2 -1.73205,-1 -1.73205,1 0,-2 -1.73205,-1 -1.73205,1 0,2 -1.73205,-1 -1.73205,1 0,-2 -1.73206,-1 1.73206,-1 0,-2 -1.73206,-1 -1.73205,1 0,-2 -1.73205,-1 -1.73205,1 0,2 -1.73205,-1 -1.73205,1 0,2 1.73205,1 -1.73205,1 0,2 -1.73205,-1 -1.73205,1 0,-2 -1.73205,-1 -1.73205,1 0,2 -1.73205,-1 -1.73205,1 0,-2 -1.73206,-1 1.73206,-1 0,-2 -1.73206,-1 -1.73205,1 0,-2 -1.73205,-1 1.73205,-1 0,-2 1.73205,1 1.73206,-1 0,-2 -1.73206,-1 1.73206,-1 0,-2 -1.73206,-1 -1.73205,1 0,-2 -1.73205,-1 -1.73205,1 0,2 -1.73205,-1 -1.73205,1 0,-2 -1.73205,-1 1.73205,-1 0,-2 -1.73205,-1 -1.73205,1 0,-2 -1.73205,-1 -1.73205,1 0,2 -1.73205,-1 -1.73205,1 0,2 1.73205,1 -1.73205,1 0,2 -1.73206,-1 -1.73205,1 0,-2 -1.73205,-1 -1.73205,1 0,2 -1.73205,-1 -1.73205,1 0,2 1.73205,1 -1.73205,1 0,2 1.73205,1 1.73205,-1 0,2 1.73205,1 -1.73205,1 0,2 -1.73205,-1 -1.73205,1 0,2 1.73205,1 -1.73205,1 0,2 -1.73205,-1 -1.73205,1 0,-2 -1.73205,-1 -1.73205,1 0,2 -1.73205,-1 -1.73205,1 0,-2 -1.73205,-1 1.73205,-1 0,-2 -1.73205,-1 -1.73206,1 0,-2 -1.73205,-1 -1.73205,1 0,2 -1.73205,-1 -1.73205,1 0,2 1.73205,1 -1.73205,1 0,2 -1.73205,-1 -1.73205,1 0,-2 -1.73205,-1 -1.73205,1 0,2 -1.73205,-1 -1.73205,1 0,-2 -1.73205,-1 1.73205,-1 0,-2 -1.73205,-1 -1.73206,1 0,-2 -1.73205,-1 1.73205,-1 0,-2 1.73206,1 1.73205,-1 0,-2 -1.73205,-1 1.73205,-1 0,-2 -1.73205,-1 -1.73206,1 0,-2 -1.73205,-1 -1.73205,1 0,2 -1.73205,-1 -1.73205,1 0,-2 -1.73205,-1 1.73205,-1 0,-2 -1.73205,-1 -1.73205,1 0,-2 -1.73205,-1 1.73205,-1 0,-2 1.73205,1 1.73205,-1 0,-2 -1.73205,-1 1.73205,-1 0,-2 1.73205,1 1.73205,-1 0,2 1.73205,1 1.73205,-1 0,-2 1.73206,1 1.73205,-1 0,-2 -1.73205,-1 1.73205,-1 0,-2 -1.73205,-1 -1.73206,1 0,-2 -1.73205,-1 1.73205,-1 0,-2 1.73206,1 1.73205,-1 0,-2 -1.73205,-1 1.73205,-1 0,-2 -1.73205,-1 -1.73206,1 0,-2 -1.73205,-1 -1.73205,1 0,2 -1.73205,-1 -1.73205,1 0,-2 -1.73205,-1 1.73205,-1 0,-2 -1.73205,-1 -1.73205,1 0,-2 -1.73205,-1 -1.73205,1 0,2 -1.73205,-1 -1.73205,1 0,2 1.73205,1 -1.73205,1 0,2 -1.73205,-1 -1.73205,1 0,-2 -1.73206,-1 -1.73205,1 0,2 -1.73205,-1 -1.73205,1 0,-2 -1.73205,-1 1.73205,-1 0,-2 -1.73205,-1 -1.73205,1 0,-2 -1.73205,-1 1.73205,-1 0,-2 1.73205,1 1.73205,-1 0,-2 -1.73205,-1 1.73205,-1 0,-2 -1.73205,-1 -1.73205,1 0,-2 -1.73205,-1 -1.73205,1 0,2 -1.73205,-1 -1.73205,1 0,-2 -1.73205,-1 1.73205,-1 0,-2 -1.73205,-1 -1.73205,1 0,-2 -1.73206,-1 1.73206,-1 0,-2 1.73205,1 1.73205,-1 0,-2 -1.73205,-1 1.73205,-1 0,-2 1.73205,1 1.73205,-1 0,2 1.73205,1 1.73205,-1 0,-2 1.73205,1 1.73205,-1 0,-2 -1.73205,-1 1.73205,-1 0,-2 -1.73205,-1 -1.73205,1 0,-2 -1.73205,-1 1.73205,-1 0,-2 1.73205,1 1.73205,-1 0,-2 -1.73205,-1 1.73205,-1 0,-2 1.73205,1 1.73205,-1 0,2 1.73205,1 1.73206,-1 0,-2 1.73205,1 1.73205,-1 0,2 1.73205,1 -1.73205,1 0,2 1.73205,1 1.73205,-1 0,2 1.73205,1 1.73205,-1 0,-2 1.73205,1 1.73205,-1 0,-2 -1.73205,-1 1.73205,-1 0,-2 1.73205,1 1.73205,-1 0,2 1.73205,1 1.73205,-1 0,-2 1.73206,1 1.73205,-1 0,-2 -1.73205,-1 1.73205,-1 0,-2 -1.73205,-1 -1.73206,1 0,-2 -1.73205,-1 1.73205,-1 0,-2 1.73206,1 1.73205,-1 0,-2 -1.73205,-1 1.73205,-1 0,-2 -1.73205,-1 -1.73206,1 0,-2 -1.73205,-1 -1.73205,1 0,2 -1.73205,-1 -1.73205,1 0,-2 -1.73205,-1 1.73205,-1 0,-2 -1.73205,-1 -1.73205,1 0,-2 -1.73205,-1 1.73205,-1 0,-2 1.73205,1 1.73205,-1 0,-2 -1.73205,-1 1.73205,-1 0,-2 1.73205,1 1.73205,-1 0,2 1.73205,1 1.73205,-1 0,-2 1.73206,1 1.73205,-1 0,-2 -1.73205,-1 1.73205,-1 0,-2 -1.73205,-1 -1.73206,1 0,-2 -1.73205,-1 1.73205,-1 0,-2 1.73206,1 1.73205,-1 0,-2 -1.73205,-1 1.73205,-1 0,-2 1.73205,1 1.73205,-1 0,2 1.73205,1 1.73205,-1 0,-2 1.73205,1 1.73205,-1 0,2 1.73205,1 -1.73205,1 0,2 1.73205,1 1.73205,-1 0,2 1.73205,1 1.73205,-1 0,-2 1.73206,1 1.73205,-1 0,-2 -1.73205,-1 1.73205,-1 0,-2 1.73205,1 1.73205,-1 0,2 1.73205,1 1.73205,-1 0,-2 1.73205,1 1.73205,-1 0,2 1.73205,1 -1.73205,1 0,2 1.73205,1 1.73205,-1 0,2 1.73205,1 -1.73205,1 0,2 -1.73205,-1 -1.73205,1 0,2 1.73205,1 -1.73205,1 0,2 1.73205,1 1.73205,-1 0,2 1.73205,1 1.73205,-1 0,-2 1.73205,1 1.73206,-1 0,2 1.73205,1 -1.73205,1 0,2 1.73205,1 1.73205,-1 0,2 1.73205,1 1.73205,-1 0,-2 1.73205,1 1.73205,-1 0,-2 -1.73205,-1 1.73205,-1 0,-2 1.73205,1 1.73205,-1 0,2 1.73205,1 1.73205,-1 0,-2 1.73205,1 1.73206,-1 0,-2 -1.73206,-1 1.73206,-1 0,-2 -1.73206,-1 -1.73205,1 0,-2 -1.73205,-1 1.73205,-1 0,-2 1.73205,1 1.73206,-1 0,-2 -1.73206,-1 1.73206,-1 0,-2 1.73205,1 1.73205,-1 0,2 1.73205,1 1.73205,-1 0,-2 1.73205,1 1.73205,-1 0,2 1.73205,1 -1.73205,1 0,2 1.73205,1 1.73205,-1 0,2 1.73205,1 1.73205,-1 0,-2 1.73205,1 1.73206,-1 0,-2 -1.73206,-1 1.73206,-1 0,-2 1.73205,1 1.73205,-1 0,2 1.73205,1 1.73205,-1 0,-2 1.73205,1 1.73205,-1 0,-2 -1.73205,-1 1.73205,-1 0,-2 -1.73205,-1 -1.73205,1 0,-2 -1.73205,-1 1.73205,-1 0,-2 1.73205,1 1.73205,-1 0,-2 -1.73205,-1 1.73205,-1 0,-2 -1.73205,-1 -1.73205,1 0,-2 -1.73205,-1 -1.73205,1 0,2 -1.73205,-1 -1.73205,1 0,-2 -1.73206,-1 1.73206,-1 0,-2 -1.73206,-1 -1.73205,1 0,-2 -1.73205,-1 1.73205,-1 0,-2 1.73205,1 1.73206,-1 0,-2 -1.73206,-1 1.73206,-1 0,-2 1.73205,1 1.73205,-1 0,2 1.73205,1 1.73205,-1 0,-2 1.73205,1 1.73205,-1 0,-2 -1.73205,-1 1.73205,-1 0,-2 -1.73205,-1 -1.73205,1 0,-2 -1.73205,-1 1.73205,-1 0,-2 1.73205,1 1.73205,-1 0,-2 -1.73205,-1 1.73205,-1 0,-2 -1.73205,-1 -1.73205,1 0,-2 -1.73205,-1 -1.73205,1 0,2 -1.73205,-1 -1.73205,1 0,-2 -1.73206,-1 1.73206,-1 0,-2 -1.73206,-1 -1.73205,1 0,-2 -1.73205,-1 -1.73205,1 0,2 -1.73205,-1 -1.73205,1 0,2 1.73205,1 -1.73205,1 0,2 -1.73205,-1 -1.73205,1 0,-2 -1.73205,-1 -1.73205,1 0,2 -1.73205,-1 -1.73205,1 0,-2 -1.73206,-1 1.73206,-1 0,-2 -1.73206,-1 -1.73205,1 0,-2 -1.73205,-1 1.73205,-1 0,-2 1.73205,1 1.73206,-1 0,-2 -1.73206,-1 1.73206,-1 0,-2 -1.73206,-1 -1.73205,1 0,-2 -1.73205,-1 -1.73205,1 0,2 -1.73205,-1 -1.73205,1 0,-2 -1.73205,-1 1.73205,-1 0,-2 -1.73205,-1 -1.73205,1 0,-2 -1.73205,-1 1.73205,-1 0,-2 1.73205,1 1.73205,-1 0,-2 -1.73205,-1 1.73205,-1 0,-2 1.73205,1 1.73205,-1 0,2 1.73205,1 1.73205,-1 0,-2 1.73205,1 1.73206,-1 0,-2 -1.73206,-1 1.73206,-1 0,-2 -1.73206,-1 -1.73205,1 0,-2 -1.73205,-1 1.73205,-1 0,-2 1.73205,1 1.73206,-1 0,-2 -1.73206,-1 1.73206,-1 0,-2 1.73205,1 1.73205,-1 0,2 1.73205,1 1.73205,-1 0,-2 1.73205,1 1.73205,-1 0,2 1.73205,1 -1.73205,1 0,2 1.73205,1 1.73205,-1 0,2 1.73205,1 1.73205,-1 0,-2 1.73205,1 1.73206,-1 0,-2 -1.73206,-1 1.73206,-1 0,-2 1.73205,1 1.73205,-1 0,2 1.73205,1 1.73205,-1 0,-2 1.73205,1 1.73205,-1 0,-2 -1.73205,-1 1.73205,-1 0,-2 -1.73205,-1 -1.73205,1 0,-2 -1.73205,-1 1.73205,-1 0,-2 1.73205,1 1.73205,-1 0,-2 -1.73205,-1 1.73205,-1 0,-2 -1.73205,-1 -1.73205,1 0,-2 -1.73205,-1 -1.73205,1 0,2 -1.73205,-1 -1.73205,1 0,-2 -1.73206,-1 1.73206,-1 0,-2 -1.73206,-1 -1.73205,1 0,-2 -1.73205,-1 1.73205,-1 0,-2 1.73205,1 1.73206,-1 0,-2 -1.73206,-1 1.73206,-1 0,-2 1.73205,1 1.73205,-1 0,2 1.73205,1 1.73205,-1 0,-2 1.73205,1 1.73205,-1 0,-2 -1.73205,-1 1.73205,-1 0,-2 -1.73205,-1 -1.73205,1 0,-2 -1.73205,-1 1.73205,-1 0,-2 1.73205,1 1.73205,-1 0,-2 -1.73205,-1 1.73205,-1 0,-2 1.73205,1 1.73205,-1 0,2 1.73205,1 1.73205,-1 0,-2 1.73205,1 1.73205,-1 0,2 1.73206,1 -1.73206,1 0,2 1.73206,1 1.73205,-1 0,2 1.73205,1 1.73205,-1 0,-2 1.73205,1 1.73205,-1 0,-2 -1.73205,-1 1.73205,-1 0,-2 1.73205,1 1.73205,-1 0,2 1.73205,1 1.73205,-1 0,-2 1.73205,1 1.73205,-1 0,2 1.73206,1 -1.73206,1 0,2 1.73206,1 1.73205,-1 0,2 1.73205,1 -1.73205,1 0,2 -1.73205,-1 -1.73206,1 0,2 1.73206,1 -1.73206,1 0,2 1.73206,1 1.73205,-1 0,2 1.73205,1 1.73205,-1 0,-2 1.73205,1 1.73205,-1 0,2 1.73205,1 -1.73205,1 0,2 1.73205,1 1.73205,-1 0,2 1.73205,1 1.73205,-1 0,-2 1.73205,1 1.73205,-1 0,-2 -1.73205,-1 1.73205,-1 0,-2 1.73206,1 1.73205,-1 0,2 1.73205,1 1.73205,-1 0,-2 1.73205,1 1.73205,-1 0,-2 -1.73205,-1 1.73205,-1 0,-2 -1.73205,-1 -1.73205,1 0,-2 -1.73205,-1 1.73205,-1 0,-2 1.73205,1 1.73205,-1 0,-2 -1.73205,-1 1.73205,-1 0,-2 1.73205,1 1.73205,-1 0,2 1.73205,1 1.73205,-1 0,-2 1.73205,1 1.73205,-1 0,2 1.73205,1 -1.73205,1 0,2 1.73205,1 1.73206,-1 0,2 1.73205,1 1.73205,-1 0,-2 1.73205,1 1.73205,-1 0,-2 -1.73205,-1 1.73205,-1 0,-2 1.73205,1 1.73205,-1 0,2 1.73205,1 1.73205,-1 0,-2 1.73205,1 1.73205,-1 0,2 1.73205,1 -1.73205,1 0,2 1.73205,1 1.73206,-1 0,2 1.73205,1 -1.73205,1 0,2 -1.73206,-1 -1.73205,1 0,2 1.73205,1 -1.73205,1 0,2 1.73205,1 1.73206,-1 0,2 1.73205,1 1.73205,-1 0,-2 1.73205,1 1.73205,-1 0,2 1.73205,1 -1.73205,1 0,2 1.73205,1 1.73205,-1 0,2 1.73205,1 -1.73205,1 0,2 -1.73205,-1 -1.73205,1 0,2 1.73205,1 -1.73205,1 0,2 -1.73205,-1 -1.73205,1 0,-2 -1.73205,-1 -1.73205,1 0,2 -1.73206,-1 -1.73205,1 0,2 1.73205,1 -1.73205,1 0,2 1.73205,1 1.73206,-1 0,2 1.73205,1 -1.73205,1 0,2 -1.73206,-1 -1.73205,1 0,2 1.73205,1 -1.73205,1 0,2 1.73205,1 1.73206,-1 0,2 1.73205,1 1.73205,-1 0,-2 1.73205,1 1.73205,-1 0,2 1.73205,1 -1.73205,1 0,2 1.73205,1 1.73205,-1 0,2 1.73205,1 1.73205,-1 0,-2 1.73205,1 1.73205,-1 0,-2 -1.73205,-1 1.73205,-1 0,-2 1.73205,1 1.73205,-1 0,2 1.73206,1 1.73205,-1 0,-2 1.73205,1 1.73205,-1 0,2 1.73205,1 -1.73205,1 0,2 1.73205,1 1.73205,-1 0,2 1.73205,1 -1.73205,1 0,2 -1.73205,-1 -1.73205,1 0,2 1.73205,1 -1.73205,1 0,2 1.73205,1 1.73205,-1 0,2 1.73205,1 1.73205,-1 0,-2 1.73205,1 1.73205,-1 0,2 1.73205,1 -1.73205,1 0,2 1.73205,1 1.73205,-1 0,2 1.73206,1 1.73205,-1 0,-2 1.73205,1 1.73205,-1 0,-2 -1.73205,-1 1.73205,-1 0,-2 1.73205,1 1.73205,-1 0,2 1.73205,1 1.73205,-1 0,-2 1.73205,1 1.73205,-1 0,-2 -1.73205,-1 1.73205,-1 0,-2 -1.73205,-1 -1.73205,1 0,-2 -1.73205,-1 1.73205,-1 0,-2 1.73205,1 1.73205,-1 0,-2 -1.73205,-1 1.73205,-1 0,-2 1.73205,1 1.73205,-1 0,2 1.73206,1 1.73205,-1 0,-2 1.73205,1 1.73205,-1 0,2 1.73205,1 -1.73205,1 0,2 1.73205,1 1.73205,-1 0,2 1.73205,1 1.73205,-1 0,-2 1.73205,1 1.73205,-1 0,-2 -1.73205,-1 1.73205,-1 0,-2 1.73205,1 1.73205,-1 0,2 1.73205,1 1.73206,-1 0,-2 1.73205,1 1.73205,-1 0,-2 -1.73205,-1 1.73205,-1 0,-2 -1.73205,-1 -1.73205,1 0,-2 -1.73206,-1 1.73206,-1 0,-2 1.73205,1 1.73205,-1 0,-2 -1.73205,-1 1.73205,-1 0,-2 -1.73205,-1 -1.73205,1 0,-2 -1.73206,-1 -1.73205,1 0,2 -1.73205,-1 -1.73205,1 0,-2 -1.73205,-1 1.73205,-1 0,-2 -1.73205,-1 -1.73205,1 0,-2 -1.73205,-1 1.73205,-1 0,-2 1.73205,1 1.73205,-1 0,-2 -1.73205,-1 1.73205,-1 0,-2 1.73205,1 1.73205,-1 0,2 1.73205,1 1.73206,-1 0,-2 1.73205,1 1.73205,-1 0,-2 -1.73205,-1 1.73205,-1 0,-2 -1.73205,-1 -1.73205,1 0,-2 -1.73206,-1 1.73206,-1 0,-2 1.73205,1 1.73205,-1 0,-2 -1.73205,-1 1.73205,-1 0,-2 1.73205,1 1.73205,-1 0,2 1.73205,1 1.73205,-1 0,-2 1.73205,1 1.73205,-1 0,2 1.73205,1 -1.73205,1 0,2 1.73205,1 1.73205,-1 0,2 1.73205,1 1.73206,-1 0,-2 1.73205,1 1.73205,-1 0,-2 -1.73205,-1 1.73205,-1 0,-2 1.73205,1 1.73205,-1 0,2 1.73205,1 1.73205,-1 0,-2 1.73205,1 1.73205,-1 0,2 1.73205,1 -1.73205,1 0,2 1.73205,1 1.73205,-1 0,2 1.73205,1 -1.73205,1 0,2 -1.73205,-1 -1.73205,1 0,2 1.73205,1 -1.73205,1 0,2 1.73205,1 1.73205,-1 0,2 1.73205,1 1.73205,-1 0,-2 1.73206,1 1.73205,-1 0,2 1.73205,1 -1.73205,1 0,2 1.73205,1 1.73205,-1 0,2 1.73205,1 1.73205,-1 0,-2 1.73205,1 1.73205,-1 0,-2 -1.73205,-1 1.73205,-1 0,-2 1.73205,1 1.73205,-1 0,2 1.73205,1 1.73205,-1 0,-2 1.73206,1 1.73205,-1 0,-2 -1.73205,-1 1.73205,-1 0,-2 -1.73205,-1 -1.73206,1 0,-2 -1.73205,-1 1.73205,-1 0,-2 1.73206,1 1.73205,-1 0,-2 -1.73205,-1 1.73205,-1 0,-2 1.73205,1 1.73205,-1 0,2 1.73205,1 1.73205,-1 0,-2 1.73205,1 1.73205,-1 0,2 1.73205,1 -1.73205,1 0,2 1.73205,1 1.73205,-1 0,2 1.73205,1 1.73205,-1 0,-2 1.73206,1 1.73205,-1 0,-2 -1.73205,-1 1.73205,-1 0,-2 1.73205,1 1.73205,-1 0,2 1.73205,1 1.73205,-1 0,-2 1.73205,1 1.73205,-1 0,2 1.73205,1 -1.73205,1 0,2 1.73205,1 1.73205,-1 0,2 1.73205,1 -1.73205,1 0,2 -1.73205,-1 -1.73205,1 0,2 1.73205,1 -1.73205,1 0,2 1.73205,1 1.73205,-1 0,2 1.73205,1 1.73205,-1 0,-2 1.73205,1 1.73206,-1 0,2 1.73205,1 -1.73205,1 0,2 1.73205,1 1.73205,-1 0,2 1.73205,1 -1.73205,1 0,2 -1.73205,-1 -1.73205,1 0,2 1.73205,1 -1.73205,1 0,2 -1.73206,-1 -1.73205,1 0,-2 -1.73205,-1 -1.73205,1 0,2 -1.73205,-1 -1.73205,1 0,2 1.73205,1 -1.73205,1 0,2 1.73205,1 1.73205,-1 0,2 1.73205,1 -1.73205,1 0,2 -1.73205,-1 -1.73205,1 0,2 1.73205,1 -1.73205,1 0,2 1.73205,1 1.73205,-1 0,2 1.73205,1 1.73205,-1 0,-2 1.73205,1 1.73206,-1 0,2 1.73205,1 -1.73205,1 0,2 1.73205,1 1.73205,-1 0,2 1.73205,1 1.73205,-1 0,-2 1.73205,1 1.73205,-1 0,-2 -1.73205,-1 1.73205,-1 0,-2 1.73205,1 1.73205,-1 0,2 1.73205,1 1.73205,-1 0,-2 1.73205,1 1.73206,-1 0,2 1.73205,1 -1.73205,1 0,2 1.73205,1 1.73205,-1 0,2 1.73205,1 -1.73205,1 0,2 -1.73205,-1 -1.73205,1 0,2 1.73205,1 -1.73205,1 0,2 1.73205,1 1.73205,-1 0,2 1.73205,1 1.73205,-1 0,-2 1.73205,1 1.73205,-1 0,2 1.73205,1 -1.73205,1 0,2 1.73205,1 1.73205,-1 0,2 1.73205,1 -1.73205,1 0,2 -1.73205,-1 -1.73205,1 0,2 1.73205,1 -1.73205,1 0,2 -1.73205,-1 -1.73205,1 0,-2 -1.73205,-1 -1.73205,1 0,2 -1.73205,-1 -1.73205,1 0,2 1.73205,1 -1.73205,1 0,2 1.73205,1 1.73205,-1 0,2 1.73205,1 -1.73205,1 0,2 -1.73205,-1 -1.73205,1 0,2 1.73205,1 -1.73205,1 0,2 -1.73206,-1 -1.73205,1 0,-2 -1.73205,-1 -1.73205,1 0,2 -1.73205,-1 -1.73205,1 0,-2 -1.73205,-1 1.73205,-1 0,-2 -1.73205,-1 -1.73205,1 0,-2 -1.73205,-1 -1.73205,1 0,2 -1.73205,-1 -1.73205,1 0,2 1.73205,1 -1.73205,1 0,2 -1.73206,-1 -1.73205,1 0,-2 -1.73205,-1 -1.73205,1 0,2 -1.73205,-1 -1.73205,1 0,2 1.73205,1 -1.73205,1 0,2 1.73205,1 1.73205,-1 0,2 1.73205,1 -1.73205,1 0,2 -1.73205,-1 -1.73205,1 0,2 1.73205,1 -1.73205,1 0,2 1.73205,1 1.73205,-1 0,2 1.73205,1 1.73205,-1 0,-2 1.73205,1 1.73206,-1 0,2 1.73205,1 -1.73205,1 0,2 1.73205,1 1.73205,-1 0,2 1.73205,1 -1.73205,1 0,2 -1.73205,-1 -1.73205,1 0,2 1.73205,1 -1.73205,1 0,2 -1.73206,-1 -1.73205,1 0,-2 -1.73205,-1 -1.73205,1 0,2 -1.73205,-1 -1.73205,1 0,2 1.73205,1 -1.73205,1 0,2 1.73205,1 1.73205,-1 0,2 1.73205,1 -1.73205,1 0,2 -1.73205,-1 -1.73205,1 0,2 1.73205,1 -1.73205,1 0,2 1.73205,1 1.73205,-1 0,2 1.73205,1 1.73205,-1 0,-2 1.73205,1 1.73206,-1 0,2 1.73205,1 -1.73205,1 0,2 1.73205,1 1.73205,-1 0,2 1.73205,1 1.73205,-1 0,-2 1.73205,1 1.73205,-1 0,-2 -1.73205,-1 1.73205,-1 0,-2 1.73205,1 1.73205,-1 0,2 1.73205,1 1.73205,-1 0,-2 1.73205,1 1.73206,-1 0,2 1.73205,1 -1.73205,1 0,2 1.73205,1 1.73205,-1 0,2 1.73205,1 -1.73205,1 0,2 -1.73205,-1 -1.73205,1 0,2 1.73205,1 -1.73205,1 0,2 1.73205,1 1.73205,-1 0,2 1.73205,1 1.73205,-1 0,-2 1.73205,1 1.73205,-1 0,2 1.73205,1 -1.73205,1 0,2 1.73205,1 1.73205,-1 0,2 1.73205,1 1.73205,-1 0,-2 1.73205,1 1.73206,-1 0,-2 -1.73206,-1 1.73206,-1 0,-2 1.73205,1 1.73205,-1 0,2 1.73205,1 1.73205,-1 0,-2 1.73205,1 1.73205,-1 0,-2 -1.73205,-1 1.73205,-1 0,-2 -1.73205,-1 -1.73205,1 0,-2 -1.73205,-1 1.73205,-1 0,-2 1.73205,1 1.73205,-1 0,-2 -1.73205,-1 1.73205,-1 0,-2 1.73205,1 1.73205,-1 0,2 1.73205,1 1.73205,-1 0,-2 1.73205,1 1.73205,-1 0,2 1.73206,1 -1.73206,1 0,2 1.73206,1 1.73205,-1 0,2 1.73205,1 1.73205,-1 0,-2 1.73205,1 1.73205,-1 0,-2 -1.73205,-1 1.73205,-1 0,-2 1.73205,1 1.73205,-1 0,2 1.73205,1 1.73205,-1 0,-2 1.73205,1 1.73205,-1 0,2 1.73206,1 -1.73206,1 0,2 1.73206,1 1.73205,-1 0,2 1.73205,1 -1.73205,1 0,2 -1.73205,-1 -1.73206,1 0,2 1.73206,1 -1.73206,1 0,2 1.73206,1 1.73205,-1 0,2 1.73205,1 1.73205,-1 0,-2 1.73205,1 1.73205,-1 0,2 1.73205,1 -1.73205,1 0,2 1.73205,1 1.73205,-1 0,2 1.73205,1 -1.73205,1 0,2 -1.73205,-1 -1.73205,1 0,2 1.73205,1 -1.73205,1 0,2 -1.73205,-1 -1.73205,1 0,-2 -1.73205,-1 -1.73205,1 0,2 -1.73205,-1 -1.73206,1 0,2 1.73206,1 -1.73206,1 0,2 1.73206,1 1.73205,-1 0,2 1.73205,1 -1.73205,1 0,2 -1.73205,-1 -1.73206,1 0,2 1.73206,1 -1.73206,1 0,2 1.73206,1 1.73205,-1 0,2 1.73205,1 1.73205,-1 0,-2 1.73205,1 1.73205,-1 0,2 1.73205,1 -1.73205,1 0,2 1.73205,1 1.73205,-1 0,2 1.73205,1 1.73205,-1 0,-2 1.73205,1 1.73205,-1 0,-2 -1.73205,-1 1.73205,-1 0,-2 1.73205,1 1.73206,-1 0,2 1.73205,1 1.73205,-1 0,-2 1.73205,1 1.73205,-1 0,2 1.73205,1 -1.73205,1 0,2 1.73205,1 1.73205,-1 0,2 1.73205,1 -1.73205,1 0,2 -1.73205,-1 -1.73205,1 0,2 1.73205,1 -1.73205,1 0,2 1.73205,1 1.73205,-1 0,2 1.73205,1 1.73205,-1 0,-2 1.73205,1 1.73205,-1 0,2 1.73205,1 -1.73205,1 0,2 1.73205,1 1.73206,-1 0,2 1.73205,1 -1.73205,1 0,2 -1.73206,-1 -1.73205,1 0,2 1.73205,1 -1.73205,1 0,2 -1.73205,-1 -1.73205,1 0,-2 -1.73205,-1 -1.73205,1 0,2 -1.73205,-1 -1.73205,1 0,2 1.73205,1 -1.73205,1 0,2 1.73205,1 1.73205,-1 0,2 1.73205,1 -1.73205,1 0,2 -1.73205,-1 -1.73205,1 0,2 1.73205,1 -1.73205,1 0,2 -1.73205,-1 -1.73205,1 0,-2 -1.73205,-1 -1.73205,1 0,2 -1.73206,-1 -1.73205,1 0,-2 -1.73205,-1 1.73205,-1 0,-2 -1.73205,-1 -1.73205,1 0,-2 -1.73205,-1 -1.73205,1 0,2 -1.73205,-1 -1.73205,1 0,2 1.73205,1 -1.73205,1 0,2 -1.73205,-1 -1.73205,1 0,-2 -1.73205,-1 -1.73205,1 0,2 -1.73205,-1 -1.73206,1 0,2 1.73206,1 -1.73206,1 0,2 1.73206,1 1.73205,-1 0,2 1.73205,1 -1.73205,1 0,2 -1.73205,-1 -1.73206,1 0,2 1.73206,1 -1.73206,1 0,2 1.73206,1 1.73205,-1 0,2 1.73205,1 1.73205,-1 0,-2 1.73205,1 1.73205,-1 0,2 1.73205,1 -1.73205,1 0,2 1.73205,1 1.73205,-1 0,2 1.73205,1 -1.73205,1 0,2 -1.73205,-1 -1.73205,1 0,2 1.73205,1 -1.73205,1 0,2 -1.73205,-1 -1.73205,1 0,-2 -1.73205,-1 -1.73205,1 0,2 -1.73205,-1 -1.73206,1 0,2 1.73206,1 -1.73206,1 0,2 1.73206,1 1.73205,-1 0,2 1.73205,1 -1.73205,1 0,2 -1.73205,-1 -1.73206,1 0,2 1.73206,1 -1.73206,1 0,2 -1.73205,-1 -1.73205,1 0,-2 -1.73205,-1 -1.73205,1 0,2 -1.73205,-1 -1.73205,1 0,-2 -1.73205,-1 1.73205,-1 0,-2 -1.73205,-1 -1.73205,1 0,-2 -1.73205,-1 -1.73205,1 0,2 -1.73205,-1 -1.73206,1 0,2 1.73206,1 -1.73206,1 0,2 -1.73205,-1 -1.73205,1 0,-2 -1.73205,-1 -1.73205,1 0,2 -1.73205,-1 -1.73205,1 0,-2 -1.73205,-1 1.73205,-1 0,-2 -1.73205,-1 -1.73205,1 0,-2 -1.73205,-1 1.73205,-1 0,-2 1.73205,1 1.73205,-1 0,-2 -1.73205,-1 1.73205,-1 0,-2 -1.73205,-1 -1.73205,1 0,-2 -1.73205,-1 -1.73205,1 0,2 -1.73205,-1 -1.73205,1 0,-2 -1.73206,-1 1.73206,-1 0,-2 -1.73206,-1 -1.73205,1 0,-2 -1.73205,-1 -1.73205,1 0,2 -1.73205,-1 -1.73205,1 0,2 1.73205,1 -1.73205,1 0,2 -1.73205,-1 -1.73205,1 0,-2 -1.73205,-1 -1.73205,1 0,2 -1.73205,-1 -1.73205,1 0,2 1.73205,1 -1.73205,1 0,2 1.73205,1 1.73205,-1 0,2 1.73205,1 -1.73205,1 0,2 -1.73205,-1 -1.73205,1 0,2 1.73205,1 -1.73205,1 0,2 -1.73206,-1 -1.73205,1 0,-2 -1.73205,-1 -1.73205,1 0,2 -1.73205,-1 -1.73205,1 0,-2 -1.73205,-1 1.73205,-1 0,-2 -1.73205,-1 -1.73205,1 0,-2 -1.73205,-1 -1.73205,1 0,2 -1.73205,-1 -1.73205,1 0,2 1.73205,1 -1.73205,1 0,2 -1.73206,-1 -1.73205,1 0,-2 -1.73205,-1 -1.73205,1 0,2 -1.73205,-1 -1.73205,1 0,2 1.73205,1 -1.73205,1 0,2 1.73205,1 1.73205,-1 0,2 1.73205,1 -1.73205,1 0,2 -1.73205,-1 -1.73205,1 0,2 1.73205,1 -1.73205,1 0,2 1.73205,1 1.73205,-1 0,2 1.73205,1 1.73205,-1 0,-2 1.73205,1 1.73206,-1 0,2 1.73205,1 -1.73205,1 0,2 1.73205,1 1.73205,-1 0,2 1.73205,1 -1.73205,1 0,2 -1.73205,-1 -1.73205,1 0,2 1.73205,1 -1.73205,1 0,2 -1.73206,-1 -1.73205,1 0,-2 -1.73205,-1 -1.73205,1 0,2 -1.73205,-1 -1.73205,1 0,2 1.73205,1 -1.73205,1 0,2 1.73205,1 1.73205,-1 0,2 1.73205,1 -1.73205,1 0,2 -1.73205,-1 -1.73205,1 0,2 1.73205,1 -1.73205,1 0,2 1.73205,1 1.73205,-1 0,2 1.73205,1 1.73205,-1 0,-2 1.73205,1 1.73206,-1 0,2 1.73205,1 -1.73205,1 0,2 1.73205,1 1.73205,-1 0,2 1.73205,1 1.73205,-1 0,-2 1.73205,1 1.73205,-1 0,-2 -1.73205,-1 1.73205,-1 0,-2 1.73205,1 1.73205,-1 0,2 1.73205,1 1.73205,-1 0,-2 1.73205,1 1.73206,-1 0,2 1.73205,1 -1.73205,1 0,2 1.73205,1 1.73205,-1 0,2 1.73205,1 -1.73205,1 0,2 -1.73205,-1 -1.73205,1 0,2 1.73205,1 -1.73205,1 0,2 1.73205,1 1.73205,-1 0,2 1.73205,1 1.73205,-1 0,-2 1.73205,1 1.73205,-1 0,2 1.73205,1 -1.73205,1 0,2 1.73205,1 1.73205,-1 0,2 1.73205,1 -1.73205,1 0,2 -1.73205,-1 -1.73205,1 0,2 1.73205,1 -1.73205,1 0,2 -1.73205,-1 -1.73205,1 0,-2 -1.73205,-1 -1.73205,1 0,2 -1.73205,-1 -1.73205,1 0,2 1.73205,1 -1.73205,1 0,2 1.73205,1 1.73205,-1 0,2 1.73205,1 -1.73205,1 0,2 -1.73205,-1 -1.73205,1 0,2 1.73205,1 -1.73205,1 0,2 -1.73206,-1 -1.73205,1 0,-2 -1.73205,-1 -1.73205,1 0,2 -1.73205,-1 -1.73205,1 0,-2 -1.73205,-1 1.73205,-1 0,-2 -1.73205,-1 -1.73205,1 0,-2 -1.73205,-1 -1.73205,1 0,2 -1.73205,-1 -1.73205,1 0,2 1.73205,1 -1.73205,1 0,2 -1.73206,-1 -1.73205,1 0,-2 -1.73205,-1 -1.73205,1 0,2 -1.73205,-1 -1.73205,1 0,2 1.73205,1 -1.73205,1 0,2 1.73205,1 1.73205,-1 0,2 1.73205,1 -1.73205,1 0,2 -1.73205,-1 -1.73205,1 0,2 1.73205,1 -1.73205,1 0,2 1.73205,1 1.73205,-1 0,2 1.73205,1 1.73205,-1 0,-2 1.73205,1 1.73206,-1 0,2 1.73205,1 -1.73205,1 0,2 1.73205,1 1.73205,-1 0,2 1.73205,1 -1.73205,1 0,2 -1.73205,-1 -1.73205,1 0,2 1.73205,1 -1.73205,1 0,2 -1.73206,-1 -1.73205,1 0,-2 -1.73205,-1 -1.73205,1 0,2 -1.73205,-1 -1.73205,1 0,2 1.73205,1 -1.73205,1 0,2 1.73205,1 1.73205,-1 0,2 1.73205,1 -1.73205,1 0,2 -1.73205,-1 -1.73205,1 0,2 1.73205,1 -1.73205,1 0,2 -1.73205,-1 -1.73205,1 0,-2 -1.73205,-1 -1.73205,1 0,2 -1.73205,-1 -1.73205,1 0,-2 -1.73205,-1 1.73205,-1 0,-2 -1.73205,-1 -1.73206,1 0,-2 -1.73205,-1 -1.73205,1 0,2 -1.73205,-1 -1.73205,1 0,2 1.73205,1 -1.73205,1 0,2 -1.73205,-1 -1.73205,1 0,-2 -1.73205,-1 -1.73205,1 0,2 -1.73205,-1 -1.73205,1 0,-2 -1.73205,-1 1.73205,-1 0,-2 -1.73205,-1 -1.73206,1 0,-2 -1.73205,-1 1.73205,-1 0,-2 1.73206,1 1.73205,-1 0,-2 -1.73205,-1 1.73205,-1 0,-2 -1.73205,-1 -1.73206,1 0,-2 -1.73205,-1 -1.73205,1 0,2 -1.73205,-1 -1.73205,1 0,-2 -1.73205,-1 1.73205,-1 0,-2 -1.73205,-1 -1.73205,1 0,-2 -1.73205,-1 -1.73205,1 0,2 -1.73205,-1 -1.73205,1 0,2 1.73205,1 -1.73205,1 0,2 -1.73205,-1 -1.73206,1 0,-2 -1.73205,-1 -1.73205,1 0,2 -1.73205,-1 -1.73205,1 0,2 1.73205,1 -1.73205,1 0,2 1.73205,1 1.73205,-1 0,2 1.73205,1 -1.73205,1 0,2 -1.73205,-1 -1.73205,1 0,2 1.73205,1 -1.73205,1 0,2 -1.73205,-1 -1.73205,1 0,-2 -1.73205,-1 -1.73205,1 0,2 -1.73205,-1 -1.73205,1 0,-2 -1.73205,-1 1.73205,-1 0,-2 -1.73205,-1 -1.73205,1 0,-2 -1.73206,-1 -1.73205,1 0,2 -1.73205,-1 -1.73205,1 0,2 1.73205,1 -1.73205,1 0,2 -1.73205,-1 -1.73205,1 0,-2 -1.73205,-1 -1.73205,1 0,2 -1.73205,-1 -1.73205,1 0,-2 -1.73205,-1 1.73205,-1 0,-2 -1.73205,-1 -1.73205,1 0,-2 -1.73206,-1 1.73206,-1 0,-2 1.73205,1 1.73205,-1 0,-2 -1.73205,-1 1.73205,-1 0,-2 -1.73205,-1 -1.73205,1 0,-2 -1.73206,-1 -1.73205,1 0,2 -1.73205,-1 -1.73205,1 0,-2 -1.73205,-1 1.73205,-1 0,-2 -1.73205,-1 -1.73205,1 0,-2 -1.73205,-1 1.73205,-1 0,-2 1.73205,1 1.73205,-1 0,-2 -1.73205,-1 1.73205,-1 0,-2 1.73205,1 1.73205,-1 0,2 1.73205,1 1.73206,-1 0,-2 1.73205,1 1.73205,-1 0,-2 -1.73205,-1 1.73205,-1 0,-2 -1.73205,-1 -1.73205,1 0,-2 -1.73206,-1 1.73206,-1 0,-2 1.73205,1 1.73205,-1 0,-2 -1.73205,-1 1.73205,-1 0,-2 -1.73205,-1 -1.73205,1 0,-2 -1.73206,-1 -1.73205,1 0,2 -1.73205,-1 -1.73205,1 0,-2 -1.73205,-1 1.73205,-1 0,-2 -1.73205,-1 -1.73205,1 0,-2 -1.73205,-1 -1.73205,1 0,2 -1.73205,-1 -1.73205,1 0,2 1.73205,1 -1.73205,1 0,2 -1.73205,-1 -1.73205,1 0,-2 -1.73205,-1 -1.73206,1 0,2 -1.73205,-1 -1.73205,1 0,-2 -1.73205,-1 1.73205,-1 0,-2 -1.73205,-1 -1.73205,1 0,-2 -1.73205,-1 1.73205,-1 0,-2 1.73205,1 1.73205,-1 0,-2 -1.73205,-1 1.73205,-1 0,-2 -1.73205,-1 -1.73205,1 0,-2 -1.73205,-1 -1.73205,1 0,2 -1.73205,-1 -1.73205,1 0,-2 -1.73205,-1 1.73205,-1 0,-2 -1.73205,-1 -1.73205,1 0,-2 -1.73205,-1 -1.73206,1 0,2 -1.73205,-1 -1.73205,1 0,2 1.73205,1 -1.73205,1 0,2 -1.73205,-1 -1.73205,1 0,-2 -1.73205,-1 -1.73205,1 0,2 -1.73205,-1 -1.73205,1 0,2 1.73205,1 -1.73205,1 0,2 1.73205,1 1.73205,-1 0,2 1.73205,1 -1.73205,1 0,2 -1.73205,-1 -1.73205,1 0,2 1.73205,1 -1.73205,1 0,2 -1.73205,-1 -1.73205,1 0,-2 -1.73205,-1 -1.73206,1 0,2 -1.73205,-1 -1.73205,1 0,-2 -1.73205,-1 1.73205,-1 0,-2 -1.73205,-1 -1.73205,1 0,-2 -1.73205,-1 -1.73205,1 0,2 -1.73205,-1 -1.73205,1 0,2 1.73205,1 -1.73205,1 0,2 -1.73205,-1 -1.73205,1 0,-2 -1.73205,-1 -1.73205,1 0,2 -1.73206,-1 -1.73205,1 0,2 1.73205,1 -1.73205,1 0,2 1.73205,1 1.73206,-1 0,2 1.73205,1 -1.73205,1 0,2 -1.73206,-1 -1.73205,1 0,2 1.73205,1 -1.73205,1 0,2 1.73205,1 1.73206,-1 0,2 1.73205,1 1.73205,-1 0,-2 1.73205,1 1.73205,-1 0,2 1.73205,1 -1.73205,1 0,2 1.73205,1 1.73205,-1 0,2 1.73205,1 -1.73205,1 0,2 -1.73205,-1 -1.73205,1 0,2 1.73205,1 -1.73205,1 0,2 -1.73205,-1 -1.73205,1 0,-2 -1.73205,-1 -1.73205,1 0,2 -1.73206,-1 -1.73205,1 0,2 1.73205,1 -1.73205,1 0,2 1.73205,1 1.73206,-1 0,2 1.73205,1 -1.73205,1 0,2 -1.73206,-1 -1.73205,1 0,2 1.73205,1 -1.73205,1 0,2 -1.73205,-1 -1.73205,1 0,-2 -1.73205,-1 -1.73205,1 0,2 -1.73205,-1 -1.73205,1 0,-2 -1.73205,-1 1.73205,-1 0,-2 -1.73205,-1 -1.73205,1 0,-2 -1.73205,-1 -1.73205,1 0,2 -1.73206,-1 -1.73205,1 0,2 1.73205,1 -1.73205,1 0,2 -1.73205,-1 -1.73205,1 0,-2 -1.73205,-1 -1.73205,1 0,2 -1.73205,-1 -1.73205,1 0,-2 -1.73205,-1 1.73205,-1 0,-2 -1.73205,-1 -1.73205,1 0,-2 -1.73205,-1 1.73205,-1 0,-2 1.73205,1 1.73205,-1 0,-2 -1.73205,-1 1.73205,-1 0,-2 -1.73205,-1 -1.73205,1 0,-2 -1.73205,-1 -1.73205,1 0,2 -1.73205,-1 -1.73206,1 0,-2 -1.73205,-1 1.73205,-1 0,-2 -1.73205,-1 -1.73205,1 0,-2 -1.73205,-1 -1.73205,1 0,2 -1.73205,-1 -1.73205,1 0,2 1.73205,1 -1.73205,1 0,2 -1.73205,-1 -1.73205,1 0,-2 -1.73205,-1 -1.73205,1 0,2 -1.73205,-1 -1.73206,1 0,2 1.73206,1 -1.73206,1 0,2 1.73206,1 1.73205,-1 0,2 1.73205,1 -1.73205,1 0,2 -1.73205,-1 -1.73206,1 0,2 1.73206,1 -1.73206,1 0,2 -1.73205,-1 -1.73205,1 0,-2 -1.73205,-1 -1.73205,1 0,2 -1.73205,-1 -1.73205,1 0,-2 -1.73205,-1 1.73205,-1 0,-2 -1.73205,-1 -1.73205,1 0,-2 -1.73205,-1 -1.73205,1 0,2 -1.73205,-1 -1.73206,1 0,2 1.73206,1 -1.73206,1 0,2 -1.73205,-1 -1.73205,1 0,-2 -1.73205,-1 -1.73205,1 0,2 -1.73205,-1 -1.73205,1 0,-2 -1.73205,-1 1.73205,-1 0,-2 -1.73205,-1 -1.73205,1 0,-2 -1.73205,-1 1.73205,-1 0,-2 1.73205,1 1.73205,-1 0,-2 -1.73205,-1 1.73205,-1 0,-2 -1.73205,-1 -1.73205,1 0,-2 -1.73205,-1 -1.73205,1 0,2 -1.73205,-1 -1.73205,1 0,-2 -1.73206,-1 1.73206,-1 0,-2 -1.73206,-1 -1.73205,1 0,-2 -1.73205,-1 1.73205,-1 0,-2 1.73205,1 1.73206,-1 0,-2 -1.73206,-1 1.73206,-1 0,-2 1.73205,1 1.73205,-1 0,2 1.73205,1 1.73205,-1 0,-2 1.73205,1 1.73205,-1 0,-2 -1.73205,-1 1.73205,-1 0,-2 -1.73205,-1 -1.73205,1 0,-2 -1.73205,-1 1.73205,-1 0,-2 1.73205,1 1.73205,-1 0,-2 -1.73205,-1 1.73205,-1 0,-2 -1.73205,-1 -1.73205,1 0,-2 -1.73205,-1 -1.73205,1 0,2 -1.73205,-1 -1.73205,1 0,-2 -1.73206,-1 1.73206,-1 0,-2 -1.73206,-1 -1.73205,1 0,-2 -1.73205,-1 -1.73205,1 0,2 -1.73205,-1 -1.73205,1 0,2 1.73205,1 -1.73205,1 0,2 -1.73205,-1 -1.73205,1 0,-2 -1.73205,-1 -1.73205,1 0,2 -1.73205,-1 -1.73205,1 0,-2 -1.73206,-1 1.73206,-1 0,-2 -1.73206,-1 -1.73205,1 0,-2 -1.73205,-1 1.73205,-1 0,-2 1.73205,1 1.73206,-1 0,-2 -1.73206,-1 1.73206,-1 0,-2 -1.73206,-1 -1.73205,1 0,-2 -1.73205,-1 -1.73205,1 0,2 -1.73205,-1 -1.73205,1 0,-2 -1.73205,-1 1.73205,-1 0,-2 -1.73205,-1 -1.73205,1 0,-2 -1.73205,-1 1.73205,-1 0,-2 1.73205,1 1.73205,-1 0,-2 -1.73205,-1 1.73205,-1 0,-2 1.73205,1 1.73205,-1 0,2 1.73205,1 1.73205,-1 0,-2 1.73205,1 1.73206,-1 0,-2 -1.73206,-1 1.73206,-1 0,-2 -1.73206,-1 -1.73205,1 0,-2 -1.73205,-1 1.73205,-1 0,-2 1.73205,1 1.73206,-1 0,-2 -1.73206,-1 1.73206,-1 0,-2 1.73205,1 1.73205,-1 0,2 1.73205,1 1.73205,-1 0,-2 1.73205,1 1.73205,-1 0,2 1.73205,1 -1.73205,1 0,2 1.73205,1 1.73205,-1 0,2 1.73205,1 1.73205,-1 0,-2 1.73205,1 1.73206,-1 0,-2 -1.73206,-1 1.73206,-1 0,-2 1.73205,1 1.73205,-1 0,2 1.73205,1 1.73205,-1 0,-2 1.73205,1 1.73205,-1 0,-2 -1.73205,-1 1.73205,-1 0,-2 -1.73205,-1 -1.73205,1 0,-2 -1.73205,-1 1.73205,-1 0,-2 1.73205,1 1.73205,-1 0,-2 -1.73205,-1 1.73205,-1 0,-2 -1.73205,-1 -1.73205,1 0,-2 -1.73205,-1 -1.73205,1 0,2 -1.73205,-1 -1.73205,1 0,-2 -1.73206,-1 1.73206,-1 0,-2 -1.73206,-1 -1.73205,1 0,-2 -1.73205,-1 1.73205,-1 0,-2 1.73205,1 1.73206,-1 0,-2 -1.73206,-1 1.73206,-1 0,-2 1.73205,1 1.73205,-1 0,2 1.73205,1 1.73205,-1 0,-2 1.73205,1 1.73205,-1 0,-2 -1.73205,-1 1.73205,-1 0,-2 -1.73205,-1 -1.73205,1 0,-2 -1.73205,-1 1.73205,-1 0,-2 1.73205,1 1.73205,-1 0,-2 -1.73205,-1 1.73205,-1 0,-2 -1.73205,-1 -1.73205,1 0,-2 -1.73205,-1 -1.73205,1 0,2 -1.73205,-1 -1.73205,1 0,-2 -1.73206,-1 1.73206,-1 0,-2 -1.73206,-1 -1.73205,1 0,-2 -1.73205,-1 -1.73205,1 0,2 -1.73205,-1 -1.73205,1 0,2 1.73205,1 -1.73205,1 0,2 -1.73205,-1 -1.73205,1 0,-2 -1.73205,-1 -1.73205,1 0,2 -1.73205,-1 -1.73205,1 0,-2 -1.73206,-1 1.73206,-1 0,-2 -1.73206,-1 -1.73205,1 0,-2 -1.73205,-1 1.73205,-1 0,-2 1.73205,1 1.73206,-1 0,-2 -1.73206,-1 1.73206,-1 0,-2 -1.73206,-1 -1.73205,1 0,-2 -1.73205,-1 -1.73205,1 0,2 -1.73205,-1 -1.73205,1 0,-2 -1.73205,-1 1.73205,-1 0,-2 -1.73205,-1 -1.73205,1 0,-2 -1.73205,-1 -1.73205,1 0,2 -1.73205,-1 -1.73205,1 0,2 1.73205,1 -1.73205,1 0,2 -1.73206,-1 -1.73205,1 0,-2 -1.73205,-1 -1.73205,1 0,2 -1.73205,-1 -1.73205,1 0,2 1.73205,1 -1.73205,1 0,2 1.73205,1 1.73205,-1 0,2 1.73205,1 -1.73205,1 0,2 -1.73205,-1 -1.73205,1 0,2 1.73205,1 -1.73205,1 0,2 -1.73205,-1 -1.73205,1 0,-2 -1.73205,-1 -1.73205,1 0,2 -1.73205,-1 -1.73205,1 0,-2 -1.73205,-1 1.73205,-1 0,-2 -1.73205,-1 -1.73206,1 0,-2 -1.73205,-1 -1.73205,1 0,2 -1.73205,-1 -1.73205,1 0,2 1.73205,1 -1.73205,1 0,2 -1.73205,-1 -1.73205,1 0,-2 -1.73205,-1 -1.73205,1 0,2 -1.73205,-1 -1.73205,1 0,-2 -1.73205,-1 1.73205,-1 0,-2 -1.73205,-1 -1.73206,1 0,-2 -1.73205,-1 1.73205,-1 0,-2 1.73206,1 1.73205,-1 0,-2 -1.73205,-1 1.73205,-1 0,-2 -1.73205,-1 -1.73206,1 0,-2 -1.73205,-1 -1.73205,1 0,2 -1.73205,-1 -1.73205,1 0,-2 -1.73205,-1 1.73205,-1 0,-2 -1.73205,-1 -1.73205,1 0,-2 -1.73205,-1 1.73205,-1 0,-2 1.73205,1 1.73205,-1 0,-2 -1.73205,-1 1.73205,-1 0,-2 1.73205,1 1.73205,-1 0,2 1.73205,1 1.73205,-1 0,-2 1.73206,1 1.73205,-1 0,-2 -1.73205,-1 1.73205,-1 0,-2 -1.73205,-1 -1.73206,1 0,-2 -1.73205,-1 1.73205,-1 0,-2 1.73206,1 1.73205,-1 0,-2 -1.73205,-1 1.73205,-1 0,-2 -1.73205,-1 -1.73206,1 0,-2 -1.73205,-1 -1.73205,1 0,2 -1.73205,-1 -1.73205,1 0,-2 -1.73205,-1 1.73205,-1 0,-2 -1.73205,-1 -1.73205,1 0,-2 -1.73205,-1 -1.73205,1 0,2 -1.73205,-1 -1.73205,1 0,2 1.73205,1 -1.73205,1 0,2 -1.73205,-1 -1.73205,1 0,-2 -1.73206,-1 -1.73205,1 0,2 -1.73205,-1 -1.73205,1 0,-2 -1.73205,-1 1.73205,-1 0,-2 -1.73205,-1 -1.73205,1 0,-2 -1.73205,-1 1.73205,-1 0,-2 1.73205,1 1.73205,-1 0,-2 -1.73205,-1 1.73205,-1 0,-2 -1.73205,-1 -1.73205,1 0,-2 -1.73205,-1 -1.73205,1 0,2 -1.73205,-1 -1.73205,1 0,-2 -1.73205,-1 1.73205,-1 0,-2 -1.73205,-1 -1.73205,1 0,-2 -1.73206,-1 1.73206,-1 0,-2 1.73205,1 1.73205,-1 0,-2 -1.73205,-1 1.73205,-1 0,-2 1.73205,1 1.73205,-1 0,2 1.73205,1 1.73205,-1 0,-2 1.73205,1 1.73205,-1 0,-2 -1.73205,-1 1.73205,-1 0,-2 -1.73205,-1 -1.73205,1 0,-2 -1.73205,-1 1.73205,-1 0,-2 1.73205,1 1.73205,-1 0,-2 -1.73205,-1 1.73205,-1 0,-2 1.73205,1 1.73205,-1 0,2 1.73205,1 1.73206,-1 0,-2 1.73205,1 1.73205,-1 0,2 1.73205,1 -1.73205,1 0,2 1.73205,1 1.73205,-1 0,2 1.73205,1 1.73205,-1 0,-2 1.73205,1 1.73205,-1 0,-2 -1.73205,-1 1.73205,-1 0,-2 1.73205,1 1.73205,-1 0,2 1.73205,1 1.73205,-1 0,-2 1.73206,1 1.73205,-1 0,-2 -1.73205,-1 1.73205,-1 0,-2 -1.73205,-1 -1.73206,1 0,-2 -1.73205,-1 1.73205,-1 0,-2 1.73206,1 1.73205,-1 0,-2 -1.73205,-1 1.73205,-1 0,-2 -1.73205,-1 -1.73206,1 0,-2 -1.73205,-1 -1.73205,1 0,2 -1.73205,-1 -1.73205,1 0,-2 -1.73205,-1 1.73205,-1 0,-2 -1.73205,-1 -1.73205,1 0,-2 -1.73205,-1 1.73205,-1 0,-2 1.73205,1 1.73205,-1 0,-2 -1.73205,-1 1.73205,-1 0,-2 1.73205,1 1.73205,-1 0,2 1.73205,1 1.73205,-1 0,-2 1.73206,1 1.73205,-1 0,-2 -1.73205,-1 1.73205,-1 0,-2 -1.73205,-1 -1.73206,1 0,-2 -1.73205,-1 1.73205,-1 0,-2 1.73206,1 1.73205,-1 0,-2 -1.73205,-1 1.73205,-1 0,-2 1.73205,1 1.73205,-1 0,2 1.73205,1 1.73205,-1 0,-2 1.73205,1 1.73205,-1 0,2 1.73205,1 -1.73205,1 0,2 1.73205,1 1.73205,-1 0,2 1.73205,1 1.73205,-1 0,-2 1.73206,1 1.73205,-1 0,-2 -1.73205,-1 1.73205,-1 0,-2 1.73205,1 1.73205,-1 0,2 1.73205,1 1.73205,-1 0,-2 1.73205,1 1.73205,-1 0,2 1.73205,1 -1.73205,1 0,2 1.73205,1 1.73205,-1 0,2 1.73205,1 -1.73205,1 0,2 -1.73205,-1 -1.73205,1 0,2 1.73205,1 -1.73205,1 0,2 1.73205,1 1.73205,-1 0,2 1.73205,1 1.73205,-1 0,-2 1.73205,1 1.73206,-1 0,2 1.73205,1 -1.73205,1 0,2 1.73205,1 1.73205,-1 0,2 1.73205,1 1.73205,-1 0,-2 1.73205,1 1.73205,-1 0,-2 -1.73205,-1 1.73205,-1 0,-2 1.73205,1 1.73205,-1 0,2 1.73205,1 1.73205,-1 0,-2 1.73205,1 1.73206,-1 0,-2 -1.73206,-1 1.73206,-1 0,-2 -1.73206,-1 -1.73205,1 0,-2 -1.73205,-1 1.73205,-1 0,-2 1.73205,1 1.73206,-1 0,-2 -1.73206,-1 1.73206,-1 0,-2 1.73205,1 1.73205,-1 0,2 1.73205,1 1.73205,-1 0,-2 1.73205,1 1.73205,-1 0,2 1.73205,1 -1.73205,1 0,2 1.73205,1 1.73205,-1 0,2 1.73205,1 1.73205,-1 0,-2 1.73205,1 1.73206,-1 0,-2 -1.73206,-1 1.73206,-1 0,-2 1.73205,1 1.73205,-1 0,2 1.73205,1 1.73205,-1 0,-2 1.73205,1 1.73205,-1 0,-2 -1.73205,-1 1.73205,-1 0,-2 -1.73205,-1 -1.73205,1 0,-2 -1.73205,-1 1.73205,-1 0,-2 1.73205,1 1.73205,-1 0,-2 -1.73205,-1 1.73205,-1 0,-2 -1.73205,-1 -1.73205,1 0,-2 -1.73205,-1 -1.73205,1 0,2 -1.73205,-1 -1.73205,1 0,-2 -1.73206,-1 1.73206,-1 0,-2 -1.73206,-1 -1.73205,1 0,-2 -1.73205,-1 1.73205,-1 0,-2 1.73205,1 1.73206,-1 0,-2 -1.73206,-1 1.73206,-1 0,-2 1.73205,1 1.73205,-1 0,2 1.73205,1 1.73205,-1 0,-2 1.73205,1 1.73205,-1 0,-2 -1.73205,-1 1.73205,-1 0,-2 -1.73205,-1 -1.73205,1 0,-2 -1.73205,-1 1.73205,-1 0,-2 1.73205,1 1.73205,-1 0,-2 -1.73205,-1 1.73205,-1 0,-2 -1.73205,-1 -1.73205,1 0,-2 -1.73205,-1 -1.73205,1 0,2 -1.73205,-1 -1.73205,1 0,-2 -1.73206,-1 1.73206,-1 0,-2 -1.73206,-1 -1.73205,1 0,-2 -1.73205,-1 -1.73205,1 0,2 -1.73205,-1 -1.73205,1 0,2 1.73205,1 -1.73205,1 0,2 -1.73205,-1 -1.73205,1 0,-2 -1.73205,-1 -1.73205,1 0,2 -1.73205,-1 -1.73205,1 0,-2 -1.73206,-1 1.73206,-1 0,-2 -1.73206,-1 -1.73205,1 0,-2 -1.73205,-1 1.73205,-1 0,-2 1.73205,1 1.73206,-1 0,-2 -1.73206,-1 1.73206,-1 0,-2 -1.73206,-1 -1.73205,1 0,-2 -1.73205,-1 -1.73205,1 0,2 -1.73205,-1 -1.73205,1 0,-2 -1.73205,-1 1.73205,-1 0,-2 -1.73205,-1 -1.73205,1 0,-2 -1.73205,-1 1.73205,-1 0,-2 1.73205,1 1.73205,-1 0,-2 -1.73205,-1 1.73205,-1 0,-2 1.73205,1 1.73205,-1 0,2 1.73205,1 1.73205,-1 0,-2 1.73205,1 1.73206,-1 0,-2 -1.73206,-1 1.73206,-1 0,-2 -1.73206,-1 -1.73205,1 0,-2 -1.73205,-1 1.73205,-1 0,-2 1.73205,1 1.73206,-1 0,-2 -1.73206,-1 1.73206,-1 0,-2 1.73205,1 1.73205,-1 0,2 1.73205,1 1.73205,-1 0,-2 1.73205,1 1.73205,-1 0,2 1.73205,1 -1.73205,1 0,2 1.73205,1 1.73205,-1 0,2 1.73205,1 1.73205,-1 0,-2 1.73205,1 1.73206,-1 0,-2 -1.73206,-1 1.73206,-1 0,-2 1.73205,1 1.73205,-1 0,2 1.73205,1 1.73205,-1 0,-2 1.73205,1 1.73205,-1 0,-2 -1.73205,-1 1.73205,-1 0,-2 -1.73205,-1 -1.73205,1 0,-2 -1.73205,-1 1.73205,-1 0,-2 1.73205,1 1.73205,-1 0,-2 -1.73205,-1 1.73205,-1 0,-2 -1.73205,-1 -1.73205,1 0,-2 -1.73205,-1 -1.73205,1 0,2 -1.73205,-1 -1.73205,1 0,-2 -1.73206,-1 1.73206,-1 0,-2 -1.73206,-1 -1.73205,1 0,-2 -1.73205,-1 1.73205,-1 0,-2 1.73205,1 1.73206,-1 0,-2 -1.73206,-1 1.73206,-1 0,-2 1.73205,1 1.73205,-1 0,2 1.73205,1 1.73205,-1 0,-2 1.73205,1 1.73205,-1 0,-2 -1.73205,-1 1.73205,-1 0,-2 -1.73205,-1 -1.73205,1 0,-2 -1.73205,-1 1.73205,-1 0,-2 1.73205,1 1.73205,-1 0,-2 -1.73205,-1 1.73205,-1 0,-2"
     id="path3291"
     style="fill:none;stroke:#000000;stroke-width:1px;stroke-linecap:butt;stroke-linejoin:miter;stroke-opacity:1" />
</svg>
