<?xml version="1.0" encoding="UTF-8" standalone="no"?>
<!-- Created with Inkscape (http://www.inkscape.org/) -->

<svg
   xmlns:dc="http://purl.org/dc/elements/1.1/"
   xmlns:cc="http://creativecommons.org/ns#"
   xmlns:rdf="http://www.w3.org/1999/02/22-rdf-syntax-ns#"
   xmlns:svg="http://www.w3.org/2000/svg"
   xmlns="http://www.w3.org/2000/svg"
   xmlns:sodipodi="http://sodipodi.sourceforge.net/DTD/sodipodi-0.dtd"
   xmlns:inkscape="http://www.inkscape.org/namespaces/inkscape"
   inkscape:version="0.48.4 r9939"
   version="1.1"
   id="svg3038"
   height="487.71875"
   width="563.1875"
   sodipodi:docname="New document 2">
  <sodipodi:namedview
     id="base"
     pagecolor="#ffffff"
     bordercolor="#666666"
     borderopacity="1.0"
     inkscape:pageopacity="0.0"
     inkscape:pageshadow="2"
     inkscape:zoom="0.35"
     inkscape:cx="-188.70982"
     inkscape:cy="120.8521"
     inkscape:document-units="px"
     inkscape:current-layer="svg3038"
     showgrid="false"
     inkscape:window-width="1530"
     inkscape:window-height="874"
     inkscape:window-x="27"
     inkscape:window-y="50"
     inkscape:window-maximized="0"
     fit-margin-top="0"
     fit-margin-left="0"
     fit-margin-right="0"
     fit-margin-bottom="0"
     showborder="false"
     inkscape:showpageshadow="false" />
  <defs
     id="defs3040" />
  <metadata
     id="metadata3043">
    <rdf:RDF>
      <cc:Work
         rdf:about="">
        <dc:format>image/svg+xml</dc:format>
        <dc:type
           rdf:resource="http://purl.org/dc/dcmitype/StillImage" />
        <dc:title></dc:title>
      </cc:Work>
    </rdf:RDF>
  </metadata>
  <g
     id="layer1"
     inkscape:groupmode="layer"
     inkscape:label="Layer 1"
     transform="translate(-122.28125,-279.78125)" />
  <path
     id="path3291"
     d="m 141.29018,486.86666 0,-2 -1.73205,-1 1.73205,-1 0,-2 -1.73205,-1 -1.73205,1 0,-2 -1.73205,-1 1.73205,-1 0,-2 1.73205,1 1.73205,-1 0,-2 -1.73205,-1 1.73205,-1 0,-2 -1.73205,-1 -1.73205,1 0,-2 -1.73205,-1 -1.73205,1 0,2 -1.73205,-1 -1.73205,1 0,-2 -1.73206,-1 1.73206,-1 0,-2 -1.73206,-1 -1.73205,1 0,-2 -1.73205,-1 1.73205,-1 0,-2 1.73205,1 1.73206,-1 0,-2 -1.73206,-1 1.73206,-1 0,-2 1.73205,1 1.73205,-1 0,2 1.73205,1 1.73205,-1 0,-2 1.73205,1 1.73205,-1 0,-2 -1.73205,-1 1.73205,-1 0,-2 -1.73205,-1 -1.73205,1 0,-2 -1.73205,-1 1.73205,-1 0,-2 1.73205,1 1.73205,-1 0,-2 -1.73205,-1 1.73205,-1 0,-2 -1.73205,-1 -1.73205,1 0,-2 -1.73205,-1 -1.73205,1 0,2 -1.73205,-1 -1.73205,1 0,-2 -1.73206,-1 1.73206,-1 0,-2 -1.73206,-1 -1.73205,1 0,-2 -1.73205,-1 -1.73205,1 0,2 -1.73205,-1 -1.73205,1 0,2 1.73205,1 -1.73205,1 0,2 -1.73205,-1 -1.73205,1 0,-2 -1.73205,-1 -1.73205,1 0,2 -1.73205,-1 -1.73205,1 0,-2 -1.73206,-1 1.73206,-1 0,-2 -1.73206,-1 -1.73205,1 0,-2 -1.73205,-1 1.73205,-1 0,-2 1.73205,1 1.73206,-1 0,-2 -1.73206,-1 1.73206,-1 0,-2 -1.73206,-1 -1.73205,1 0,-2 -1.73205,-1 -1.73205,1 0,2 -1.73205,-1 -1.73205,1 0,-2 -1.73205,-1 1.73205,-1 0,-2 -1.73205,-1 -1.73205,1 0,-2 -1.73205,-1 1.73205,-1 0,-2 1.73205,1 1.73205,-1 0,-2 -1.73205,-1 1.73205,-1 0,-2 1.73205,1 1.73205,-1 0,2 1.73205,1 1.73205,-1 0,-2 1.73205,1 1.73206,-1 0,-2 -1.73206,-1 1.73206,-1 0,-2 -1.73206,-1 -1.73205,1 0,-2 -1.73205,-1 1.73205,-1 0,-2 1.73205,1 1.73206,-1 0,-2 -1.73206,-1 1.73206,-1 0,-2 1.73205,1 1.73205,-1 0,2 1.73205,1 1.73205,-1 0,-2 1.73205,1 1.73205,-1 0,2 1.73205,1 -1.73205,1 0,2 1.73205,1 1.73205,-1 0,2 1.73205,1 1.73205,-1 0,-2 1.73205,1 1.73206,-1 0,-2 -1.73206,-1 1.73206,-1 0,-2 1.73205,1 1.73205,-1 0,2 1.73205,1 1.73205,-1 0,-2 1.73205,1 1.73205,-1 0,-2 -1.73205,-1 1.73205,-1 0,-2 -1.73205,-1 -1.73205,1 0,-2 -1.73205,-1 1.73205,-1 0,-2 1.73205,1 1.73205,-1 0,-2 -1.73205,-1 1.73205,-1 0,-2 -1.73205,-1 -1.73205,1 0,-2 -1.73205,-1 -1.73205,1 0,2 -1.73205,-1 -1.73205,1 0,-2 -1.73206,-1 1.73206,-1 0,-2 -1.73206,-1 -1.73205,1 0,-2 -1.73205,-1 1.73205,-1 0,-2 1.73205,1 1.73206,-1 0,-2 -1.73206,-1 1.73206,-1 0,-2 1.73205,1 1.73205,-1 0,2 1.73205,1 1.73205,-1 0,-2 1.73205,1 1.73205,-1 0,-2 -1.73205,-1 1.73205,-1 0,-2 -1.73205,-1 -1.73205,1 0,-2 -1.73205,-1 1.73205,-1 0,-2 1.73205,1 1.73205,-1 0,-2 -1.73205,-1 1.73205,-1 0,-2 -1.73205,-1 -1.73205,1 0,-2 -1.73205,-1 -1.73205,1 0,2 -1.73205,-1 -1.73205,1 0,-2 -1.73206,-1 1.73206,-1 0,-2 -1.73206,-1 -1.73205,1 0,-2 -1.73205,-1 -1.73205,1 0,2 -1.73205,-1 -1.73205,1 0,2 1.73205,1 -1.73205,1 0,2 -1.73205,-1 -1.73205,1 0,-2 -1.73205,-1 -1.73205,1 0,2 -1.73205,-1 -1.73205,1 0,-2 -1.73206,-1 1.73206,-1 0,-2 -1.73206,-1 -1.73205,1 0,-2 -1.73205,-1 1.73205,-1 0,-2 1.73205,1 1.73206,-1 0,-2 -1.73206,-1 1.73206,-1 0,-2 -1.73206,-1 -1.73205,1 0,-2 -1.73205,-1 -1.73205,1 0,2 -1.73205,-1 -1.73205,1 0,-2 -1.73205,-1 1.73205,-1 0,-2 -1.73205,-1 -1.73205,1 0,-2 -1.73205,-1 -1.73205,1 0,2 -1.73205,-1 -1.73205,1 0,2 1.73205,1 -1.73205,1 0,2 -1.73206,-1 -1.73205,1 0,-2 -1.73205,-1 -1.73205,1 0,2 -1.73205,-1 -1.73205,1 0,2 1.73205,1 -1.73205,1 0,2 1.73205,1 1.73205,-1 0,2 1.73205,1 -1.73205,1 0,2 -1.73205,-1 -1.73205,1 0,2 1.73205,1 -1.73205,1 0,2 -1.73205,-1 -1.73205,1 0,-2 -1.73205,-1 -1.73205,1 0,2 -1.73205,-1 -1.73205,1 0,-2 -1.73205,-1 1.73205,-1 0,-2 -1.73205,-1 -1.73206,1 0,-2 -1.73205,-1 -1.73205,1 0,2 -1.73205,-1 -1.73205,1 0,2 1.73205,1 -1.73205,1 0,2 -1.73205,-1 -1.73205,1 0,-2 -1.73205,-1 -1.73205,1 0,2 -1.73205,-1 -1.73205,1 0,-2 -1.73205,-1 1.73205,-1 0,-2 -1.73205,-1 -1.73206,1 0,-2 -1.73205,-1 1.73205,-1 0,-2 1.73206,1 1.73205,-1 0,-2 -1.73205,-1 1.73205,-1 0,-2 -1.73205,-1 -1.73206,1 0,-2 -1.73205,-1 -1.73205,1 0,2 -1.73205,-1 -1.73205,1 0,-2 -1.73205,-1 1.73205,-1 0,-2 -1.73205,-1 -1.73205,1 0,-2 -1.73205,-1 1.73205,-1 0,-2 1.73205,1 1.73205,-1 0,-2 -1.73205,-1 1.73205,-1 0,-2 1.73205,1 1.73205,-1 0,2 1.73205,1 1.73205,-1 0,-2 1.73206,1 1.73205,-1 0,-2 -1.73205,-1 1.73205,-1 0,-2 -1.73205,-1 -1.73206,1 0,-2 -1.73205,-1 1.73205,-1 0,-2 1.73206,1 1.73205,-1 0,-2 -1.73205,-1 1.73205,-1 0,-2 -1.73205,-1 -1.73206,1 0,-2 -1.73205,-1 -1.73205,1 0,2 -1.73205,-1 -1.73205,1 0,-2 -1.73205,-1 1.73205,-1 0,-2 -1.73205,-1 -1.73205,1 0,-2 -1.73205,-1 -1.73205,1 0,2 -1.73205,-1 -1.73205,1 0,2 1.73205,1 -1.73205,1 0,2 -1.73205,-1 -1.73205,1 0,-2 -1.73206,-1 -1.73205,1 0,2 -1.73205,-1 -1.73205,1 0,-2 -1.73205,-1 1.73205,-1 0,-2 -1.73205,-1 -1.73205,1 0,-2 -1.73205,-1 1.73205,-1 0,-2 1.73205,1 1.73205,-1 0,-2 -1.73205,-1 1.73205,-1 0,-2 -1.73205,-1 -1.73205,1 0,-2 -1.73205,-1 -1.73205,1 0,2 -1.73205,-1 -1.73205,1 0,-2 -1.73205,-1 1.73205,-1 0,-2 -1.73205,-1 -1.73205,1 0,-2 -1.73206,-1 1.73206,-1 0,-2 1.73205,1 1.73205,-1 0,-2 -1.73205,-1 1.73205,-1 0,-2 1.73205,1 1.73205,-1 0,2 1.73205,1 1.73205,-1 0,-2 1.73205,1 1.73205,-1 0,-2 -1.73205,-1 1.73205,-1 0,-2 -1.73205,-1 -1.73205,1 0,-2 -1.73205,-1 1.73205,-1 0,-2 1.73205,1 1.73205,-1 0,-2 -1.73205,-1 1.73205,-1 0,-2 1.73205,1 1.73205,-1 0,2 1.73205,1 1.73206,-1 0,-2 1.73205,1 1.73205,-1 0,2 1.73205,1 -1.73205,1 0,2 1.73205,1 1.73205,-1 0,2 1.73205,1 1.73205,-1 0,-2 1.73205,1 1.73205,-1 0,-2 -1.73205,-1 1.73205,-1 0,-2 1.73205,1 1.73205,-1 0,2 1.73205,1 1.73205,-1 0,-2 1.73206,1 1.73205,-1 0,-2 -1.73205,-1 1.73205,-1 0,-2 -1.73205,-1 -1.73206,1 0,-2 -1.73205,-1 1.73205,-1 0,-2 1.73206,1 1.73205,-1 0,-2 -1.73205,-1 1.73205,-1 0,-2 -1.73205,-1 -1.73206,1 0,-2 -1.73205,-1 -1.73205,1 0,2 -1.73205,-1 -1.73205,1 0,-2 -1.73205,-1 1.73205,-1 0,-2 -1.73205,-1 -1.73205,1 0,-2 -1.73205,-1 1.73205,-1 0,-2 1.73205,1 1.73205,-1 0,-2 -1.73205,-1 1.73205,-1 0,-2 1.73205,1 1.73205,-1 0,2 1.73205,1 1.73205,-1 0,-2 1.73206,1 1.73205,-1 0,-2 -1.73205,-1 1.73205,-1 0,-2 -1.73205,-1 -1.73206,1 0,-2 -1.73205,-1 1.73205,-1 0,-2 1.73206,1 1.73205,-1 0,-2 -1.73205,-1 1.73205,-1 0,-2 1.73205,1 1.73205,-1 0,2 1.73205,1 1.73205,-1 0,-2 1.73205,1 1.73205,-1 0,2 1.73205,1 -1.73205,1 0,2 1.73205,1 1.73205,-1 0,2 1.73205,1 1.73205,-1 0,-2 1.73206,1 1.73205,-1 0,-2 -1.73205,-1 1.73205,-1 0,-2 1.73205,1 1.73205,-1 0,2 1.73205,1 1.73205,-1 0,-2 1.73205,1 1.73205,-1 0,2 1.73205,1 -1.73205,1 0,2 1.73205,1 1.73205,-1 0,2 1.73205,1 -1.73205,1 0,2 -1.73205,-1 -1.73205,1 0,2 1.73205,1 -1.73205,1 0,2 1.73205,1 1.73205,-1 0,2 1.73205,1 1.73205,-1 0,-2 1.73205,1 1.73206,-1 0,2 1.73205,1 -1.73205,1 0,2 1.73205,1 1.73205,-1 0,2 1.73205,1 1.73205,-1 0,-2 1.73205,1 1.73205,-1 0,-2 -1.73205,-1 1.73205,-1 0,-2 1.73205,1 1.73205,-1 0,2 1.73205,1 1.73205,-1 0,-2 1.73205,1 1.73206,-1 0,-2 -1.73206,-1 1.73206,-1 0,-2 -1.73206,-1 -1.73205,1 0,-2 -1.73205,-1 1.73205,-1 0,-2 1.73205,1 1.73206,-1 0,-2 -1.73206,-1 1.73206,-1 0,-2 1.73205,1 1.73205,-1 0,2 1.73205,1 1.73205,-1 0,-2 1.73205,1 1.73205,-1 0,2 1.73205,1 -1.73205,1 0,2 1.73205,1 1.73205,-1 0,2 1.73205,1 1.73205,-1 0,-2 1.73205,1 1.73206,-1 0,-2 -1.73206,-1 1.73206,-1 0,-2 1.73205,1 1.73205,-1 0,2 1.73205,1 1.73205,-1 0,-2 1.73205,1 1.73205,-1 0,-2 -1.73205,-1 1.73205,-1 0,-2 -1.73205,-1 -1.73205,1 0,-2 -1.73205,-1 1.73205,-1 0,-2 1.73205,1 1.73205,-1 0,-2 -1.73205,-1 1.73205,-1 0,-2 -1.73205,-1 -1.73205,1 0,-2 -1.73205,-1 -1.73205,1 0,2 -1.73205,-1 -1.73205,1 0,-2 -1.73206,-1 1.73206,-1 0,-2 -1.73206,-1 -1.73205,1 0,-2 -1.73205,-1 1.73205,-1 0,-2 1.73205,1 1.73206,-1 0,-2 -1.73206,-1 1.73206,-1 0,-2 1.73205,1 1.73205,-1 0,2 1.73205,1 1.73205,-1 0,-2 1.73205,1 1.73205,-1 0,-2 -1.73205,-1 1.73205,-1 0,-2 -1.73205,-1 -1.73205,1 0,-2 -1.73205,-1 1.73205,-1 0,-2 1.73205,1 1.73205,-1 0,-2 -1.73205,-1 1.73205,-1 0,-2 -1.73205,-1 -1.73205,1 0,-2 -1.73205,-1 -1.73205,1 0,2 -1.73205,-1 -1.73205,1 0,-2 -1.73206,-1 1.73206,-1 0,-2 -1.73206,-1 -1.73205,1 0,-2 -1.73205,-1 -1.73205,1 0,2 -1.73205,-1 -1.73205,1 0,2 1.73205,1 -1.73205,1 0,2 -1.73205,-1 -1.73205,1 0,-2 -1.73205,-1 -1.73205,1 0,2 -1.73205,-1 -1.73205,1 0,-2 -1.73206,-1 1.73206,-1 0,-2 -1.73206,-1 -1.73205,1 0,-2 -1.73205,-1 1.73205,-1 0,-2 1.73205,1 1.73206,-1 0,-2 -1.73206,-1 1.73206,-1 0,-2 -1.73206,-1 -1.73205,1 0,-2 -1.73205,-1 -1.73205,1 0,2 -1.73205,-1 -1.73205,1 0,-2 -1.73205,-1 1.73205,-1 0,-2 -1.73205,-1 -1.73205,1 0,-2 -1.73205,-1 1.73205,-1 0,-2 1.73205,1 1.73205,-1 0,-2 -1.73205,-1 1.73205,-1 0,-2 1.73205,1 1.73205,-1 0,2 1.73205,1 1.73205,-1 0,-2 1.73205,1 1.73206,-1 0,-2 -1.73206,-1 1.73206,-1 0,-2 -1.73206,-1 -1.73205,1 0,-2 -1.73205,-1 1.73205,-1 0,-2 1.73205,1 1.73206,-1 0,-2 -1.73206,-1 1.73206,-1 0,-2 1.73205,1 1.73205,-1 0,2 1.73205,1 1.73205,-1 0,-2 1.73205,1 1.73205,-1 0,2 1.73205,1 -1.73205,1 0,2 1.73205,1 1.73205,-1 0,2 1.73205,1 1.73205,-1 0,-2 1.73205,1 1.73206,-1 0,-2 -1.73206,-1 1.73206,-1 0,-2 1.73205,1 1.73205,-1 0,2 1.73205,1 1.73205,-1 0,-2 1.73205,1 1.73205,-1 0,-2 -1.73205,-1 1.73205,-1 0,-2 -1.73205,-1 -1.73205,1 0,-2 -1.73205,-1 1.73205,-1 0,-2 1.73205,1 1.73205,-1 0,-2 -1.73205,-1 1.73205,-1 0,-2 -1.73205,-1 -1.73205,1 0,-2 -1.73205,-1 -1.73205,1 0,2 -1.73205,-1 -1.73205,1 0,-2 -1.73206,-1 1.73206,-1 0,-2 -1.73206,-1 -1.73205,1 0,-2 -1.73205,-1 1.73205,-1 0,-2 1.73205,1 1.73206,-1 0,-2 -1.73206,-1 1.73206,-1 0,-2 1.73205,1 1.73205,-1 0,2 1.73205,1 1.73205,-1 0,-2 1.73205,1 1.73205,-1 0,-2 -1.73205,-1 1.73205,-1 0,-2 -1.73205,-1 -1.73205,1 0,-2 -1.73205,-1 1.73205,-1 0,-2 1.73205,1 1.73205,-1 0,-2 -1.73205,-1 1.73205,-1 0,-2 1.73205,1 1.73205,-1 0,2 1.73205,1 1.73205,-1 0,-2 1.73205,1 1.73205,-1 0,2 1.73206,1 -1.73206,1 0,2 1.73206,1 1.73205,-1 0,2 1.73205,1 1.73205,-1 0,-2 1.73205,1 1.73205,-1 0,-2 -1.73205,-1 1.73205,-1 0,-2 1.73205,1 1.73205,-1 0,2 1.73205,1 1.73205,-1 0,-2 1.73205,1 1.73205,-1 0,2 1.73206,1 -1.73206,1 0,2 1.73206,1 1.73205,-1 0,2 1.73205,1 -1.73205,1 0,2 -1.73205,-1 -1.73206,1 0,2 1.73206,1 -1.73206,1 0,2 1.73206,1 1.73205,-1 0,2 1.73205,1 1.73205,-1 0,-2 1.73205,1 1.73205,-1 0,2 1.73205,1 -1.73205,1 0,2 1.73205,1 1.73205,-1 0,2 1.73205,1 1.73205,-1 0,-2 1.73205,1 1.73205,-1 0,-2 -1.73205,-1 1.73205,-1 0,-2 1.73206,1 1.73205,-1 0,2 1.73205,1 1.73205,-1 0,-2 1.73205,1 1.73205,-1 0,-2 -1.73205,-1 1.73205,-1 0,-2 -1.73205,-1 -1.73205,1 0,-2 -1.73205,-1 1.73205,-1 0,-2 1.73205,1 1.73205,-1 0,-2 -1.73205,-1 1.73205,-1 0,-2 1.73205,1 1.73205,-1 0,2 1.73205,1 1.73205,-1 0,-2 1.73205,1 1.73205,-1 0,2 1.73205,1 -1.73205,1 0,2 1.73205,1 1.73206,-1 0,2 1.73205,1 1.73205,-1 0,-2 1.73205,1 1.73205,-1 0,-2 -1.73205,-1 1.73205,-1 0,-2 1.73205,1 1.73205,-1 0,2 1.73205,1 1.73205,-1 0,-2 1.73205,1 1.73205,-1 0,2 1.73205,1 -1.73205,1 0,2 1.73205,1 1.73206,-1 0,2 1.73205,1 -1.73205,1 0,2 -1.73206,-1 -1.73205,1 0,2 1.73205,1 -1.73205,1 0,2 1.73205,1 1.73206,-1 0,2 1.73205,1 1.73205,-1 0,-2 1.73205,1 1.73205,-1 0,2 1.73205,1 -1.73205,1 0,2 1.73205,1 1.73205,-1 0,2 1.73205,1 -1.73205,1 0,2 -1.73205,-1 -1.73205,1 0,2 1.73205,1 -1.73205,1 0,2 -1.73205,-1 -1.73205,1 0,-2 -1.73205,-1 -1.73205,1 0,2 -1.73206,-1 -1.73205,1 0,2 1.73205,1 -1.73205,1 0,2 1.73205,1 1.73206,-1 0,2 1.73205,1 -1.73205,1 0,2 -1.73206,-1 -1.73205,1 0,2 1.73205,1 -1.73205,1 0,2 1.73205,1 1.73206,-1 0,2 1.73205,1 1.73205,-1 0,-2 1.73205,1 1.73205,-1 0,2 1.73205,1 -1.73205,1 0,2 1.73205,1 1.73205,-1 0,2 1.73205,1 1.73205,-1 0,-2 1.73205,1 1.73205,-1 0,-2 -1.73205,-1 1.73205,-1 0,-2 1.73205,1 1.73205,-1 0,2 1.73206,1 1.73205,-1 0,-2 1.73205,1 1.73205,-1 0,2 1.73205,1 -1.73205,1 0,2 1.73205,1 1.73205,-1 0,2 1.73205,1 -1.73205,1 0,2 -1.73205,-1 -1.73205,1 0,2 1.73205,1 -1.73205,1 0,2 1.73205,1 1.73205,-1 0,2 1.73205,1 1.73205,-1 0,-2 1.73205,1 1.73205,-1 0,2 1.73205,1 -1.73205,1 0,2 1.73205,1 1.73205,-1 0,2 1.73206,1 1.73205,-1 0,-2 1.73205,1 1.73205,-1 0,-2 -1.73205,-1 1.73205,-1 0,-2 1.73205,1 1.73205,-1 0,2 1.73205,1 1.73205,-1 0,-2 1.73205,1 1.73205,-1 0,-2 -1.73205,-1 1.73205,-1 0,-2 -1.73205,-1 -1.73205,1 0,-2 -1.73205,-1 1.73205,-1 0,-2 1.73205,1 1.73205,-1 0,-2 -1.73205,-1 1.73205,-1 0,-2 1.73205,1 1.73205,-1 0,2 1.73206,1 1.73205,-1 0,-2 1.73205,1 1.73205,-1 0,2 1.73205,1 -1.73205,1 0,2 1.73205,1 1.73205,-1 0,2 1.73205,1 1.73205,-1 0,-2 1.73205,1 1.73205,-1 0,-2 -1.73205,-1 1.73205,-1 0,-2 1.73205,1 1.73205,-1 0,2 1.73205,1 1.73206,-1 0,-2 1.73205,1 1.73205,-1 0,-2 -1.73205,-1 1.73205,-1 0,-2 -1.73205,-1 -1.73205,1 0,-2 -1.73206,-1 1.73206,-1 0,-2 1.73205,1 1.73205,-1 0,-2 -1.73205,-1 1.73205,-1 0,-2 -1.73205,-1 -1.73205,1 0,-2 -1.73206,-1 -1.73205,1 0,2 -1.73205,-1 -1.73205,1 0,-2 -1.73205,-1 1.73205,-1 0,-2 -1.73205,-1 -1.73205,1 0,-2 -1.73205,-1 1.73205,-1 0,-2 1.73205,1 1.73205,-1 0,-2 -1.73205,-1 1.73205,-1 0,-2 1.73205,1 1.73205,-1 0,2 1.73205,1 1.73206,-1 0,-2 1.73205,1 1.73205,-1 0,-2 -1.73205,-1 1.73205,-1 0,-2 -1.73205,-1 -1.73205,1 0,-2 -1.73206,-1 1.73206,-1 0,-2 1.73205,1 1.73205,-1 0,-2 -1.73205,-1 1.73205,-1 0,-2 1.73205,1 1.73205,-1 0,2 1.73205,1 1.73205,-1 0,-2 1.73205,1 1.73205,-1 0,2 1.73205,1 -1.73205,1 0,2 1.73205,1 1.73205,-1 0,2 1.73205,1 1.73206,-1 0,-2 1.73205,1 1.73205,-1 0,-2 -1.73205,-1 1.73205,-1 0,-2 1.73205,1 1.73205,-1 0,2 1.73205,1 1.73205,-1 0,-2 1.73205,1 1.73205,-1 0,2 1.73205,1 -1.73205,1 0,2 1.73205,1 1.73205,-1 0,2 1.73205,1 -1.73205,1 0,2 -1.73205,-1 -1.73205,1 0,2 1.73205,1 -1.73205,1 0,2 1.73205,1 1.73205,-1 0,2 1.73205,1 1.73205,-1 0,-2 1.73206,1 1.73205,-1 0,2 1.73205,1 -1.73205,1 0,2 1.73205,1 1.73205,-1 0,2 1.73205,1 1.73205,-1 0,-2 1.73205,1 1.73205,-1 0,-2 -1.73205,-1 1.73205,-1 0,-2 1.73205,1 1.73205,-1 0,2 1.73205,1 1.73205,-1 0,-2 1.73206,1 1.73205,-1 0,-2 -1.73205,-1 1.73205,-1 0,-2 -1.73205,-1 -1.73206,1 0,-2 -1.73205,-1 1.73205,-1 0,-2 1.73206,1 1.73205,-1 0,-2 -1.73205,-1 1.73205,-1 0,-2 1.73205,1 1.73205,-1 0,2 1.73205,1 1.73205,-1 0,-2 1.73205,1 1.73205,-1 0,2 1.73205,1 -1.73205,1 0,2 1.73205,1 1.73205,-1 0,2 1.73205,1 1.73205,-1 0,-2 1.73206,1 1.73205,-1 0,-2 -1.73205,-1 1.73205,-1 0,-2 1.73205,1 1.73205,-1 0,2 1.73205,1 1.73205,-1 0,-2 1.73205,1 1.73205,-1 0,2 1.73205,1 -1.73205,1 0,2 1.73205,1 1.73205,-1 0,2 1.73205,1 -1.73205,1 0,2 -1.73205,-1 -1.73205,1 0,2 1.73205,1 -1.73205,1 0,2 1.73205,1 1.73205,-1 0,2 1.73205,1 1.73205,-1 0,-2 1.73205,1 1.73206,-1 0,2 1.73205,1 -1.73205,1 0,2 1.73205,1 1.73205,-1 0,2 1.73205,1 -1.73205,1 0,2 -1.73205,-1 -1.73205,1 0,2 1.73205,1 -1.73205,1 0,2 -1.73206,-1 -1.73205,1 0,-2 -1.73205,-1 -1.73205,1 0,2 -1.73205,-1 -1.73205,1 0,2 1.73205,1 -1.73205,1 0,2 1.73205,1 1.73205,-1 0,2 1.73205,1 -1.73205,1 0,2 -1.73205,-1 -1.73205,1 0,2 1.73205,1 -1.73205,1 0,2 1.73205,1 1.73205,-1 0,2 1.73205,1 1.73205,-1 0,-2 1.73205,1 1.73206,-1 0,2 1.73205,1 -1.73205,1 0,2 1.73205,1 1.73205,-1 0,2 1.73205,1 1.73205,-1 0,-2 1.73205,1 1.73205,-1 0,-2 -1.73205,-1 1.73205,-1 0,-2 1.73205,1 1.73205,-1 0,2 1.73205,1 1.73205,-1 0,-2 1.73205,1 1.73206,-1 0,2 1.73205,1 -1.73205,1 0,2 1.73205,1 1.73205,-1 0,2 1.73205,1 -1.73205,1 0,2 -1.73205,-1 -1.73205,1 0,2 1.73205,1 -1.73205,1 0,2 1.73205,1 1.73205,-1 0,2 1.73205,1 1.73205,-1 0,-2 1.73205,1 1.73205,-1 0,2 1.73205,1 -1.73205,1 0,2 1.73205,1 1.73205,-1 0,2 1.73205,1 -1.73205,1 0,2 -1.73205,-1 -1.73205,1 0,2 1.73205,1 -1.73205,1 0,2 -1.73205,-1 -1.73205,1 0,-2 -1.73205,-1 -1.73205,1 0,2 -1.73205,-1 -1.73205,1 0,2 1.73205,1 -1.73205,1 0,2 1.73205,1 1.73205,-1 0,2 1.73205,1 -1.73205,1 0,2 -1.73205,-1 -1.73205,1 0,2 1.73205,1 -1.73205,1 0,2 -1.73206,-1 -1.73205,1 0,-2 -1.73205,-1 -1.73205,1 0,2 -1.73205,-1 -1.73205,1 0,-2 -1.73205,-1 1.73205,-1 0,-2 -1.73205,-1 -1.73205,1 0,-2 -1.73205,-1 -1.73205,1 0,2 -1.73205,-1 -1.73205,1 0,2 1.73205,1 -1.73205,1 0,2 -1.73206,-1 -1.73205,1 0,-2 -1.73205,-1 -1.73205,1 0,2 -1.73205,-1 -1.73205,1 0,2 1.73205,1 -1.73205,1 0,2 1.73205,1 1.73205,-1 0,2 1.73205,1 -1.73205,1 0,2 -1.73205,-1 -1.73205,1 0,2 1.73205,1 -1.73205,1 0,2 1.73205,1 1.73205,-1 0,2 1.73205,1 1.73205,-1 0,-2 1.73205,1 1.73206,-1 0,2 1.73205,1 -1.73205,1 0,2 1.73205,1 1.73205,-1 0,2 1.73205,1 -1.73205,1 0,2 -1.73205,-1 -1.73205,1 0,2 1.73205,1 -1.73205,1 0,2 -1.73206,-1 -1.73205,1 0,-2 -1.73205,-1 -1.73205,1 0,2 -1.73205,-1 -1.73205,1 0,2 1.73205,1 -1.73205,1 0,2 1.73205,1 1.73205,-1 0,2 1.73205,1 -1.73205,1 0,2 -1.73205,-1 -1.73205,1 0,2 1.73205,1 -1.73205,1 0,2 1.73205,1 1.73205,-1 0,2 1.73205,1 1.73205,-1 0,-2 1.73205,1 1.73206,-1 0,2 1.73205,1 -1.73205,1 0,2 1.73205,1 1.73205,-1 0,2 1.73205,1 1.73205,-1 0,-2 1.73205,1 1.73205,-1 0,-2 -1.73205,-1 1.73205,-1 0,-2 1.73205,1 1.73205,-1 0,2 1.73205,1 1.73205,-1 0,-2 1.73205,1 1.73206,-1 0,2 1.73205,1 -1.73205,1 0,2 1.73205,1 1.73205,-1 0,2 1.73205,1 -1.73205,1 0,2 -1.73205,-1 -1.73205,1 0,2 1.73205,1 -1.73205,1 0,2 1.73205,1 1.73205,-1 0,2 1.73205,1 1.73205,-1 0,-2 1.73205,1 1.73205,-1 0,2 1.73205,1 -1.73205,1 0,2 1.73205,1 1.73205,-1 0,2 1.73205,1 1.73205,-1 0,-2 1.73205,1 1.73206,-1 0,-2 -1.73206,-1 1.73206,-1 0,-2 1.73205,1 1.73205,-1 0,2 1.73205,1 1.73205,-1 0,-2 1.73205,1 1.73205,-1 0,-2 -1.73205,-1 1.73205,-1 0,-2 -1.73205,-1 -1.73205,1 0,-2 -1.73205,-1 1.73205,-1 0,-2 1.73205,1 1.73205,-1 0,-2 -1.73205,-1 1.73205,-1 0,-2 1.73205,1 1.73205,-1 0,2 1.73205,1 1.73205,-1 0,-2 1.73205,1 1.73205,-1 0,2 1.73206,1 -1.73206,1 0,2 1.73206,1 1.73205,-1 0,2 1.73205,1 1.73205,-1 0,-2 1.73205,1 1.73205,-1 0,-2 -1.73205,-1 1.73205,-1 0,-2 1.73205,1 1.73205,-1 0,2 1.73205,1 1.73205,-1 0,-2 1.73205,1 1.73205,-1 0,2 1.73206,1 -1.73206,1 0,2 1.73206,1 1.73205,-1 0,2 1.73205,1 -1.73205,1 0,2 -1.73205,-1 -1.73206,1 0,2 1.73206,1 -1.73206,1 0,2 1.73206,1 1.73205,-1 0,2 1.73205,1 1.73205,-1 0,-2 1.73205,1 1.73205,-1 0,2 1.73205,1 -1.73205,1 0,2 1.73205,1 1.73205,-1 0,2 1.73205,1 -1.73205,1 0,2 -1.73205,-1 -1.73205,1 0,2 1.73205,1 -1.73205,1 0,2 -1.73205,-1 -1.73205,1 0,-2 -1.73205,-1 -1.73205,1 0,2 -1.73205,-1 -1.73206,1 0,2 1.73206,1 -1.73206,1 0,2 1.73206,1 1.73205,-1 0,2 1.73205,1 -1.73205,1 0,2 -1.73205,-1 -1.73206,1 0,2 1.73206,1 -1.73206,1 0,2 1.73206,1 1.73205,-1 0,2 1.73205,1 1.73205,-1 0,-2 1.73205,1 1.73205,-1 0,2 1.73205,1 -1.73205,1 0,2 1.73205,1 1.73205,-1 0,2 1.73205,1 1.73205,-1 0,-2 1.73205,1 1.73205,-1 0,-2 -1.73205,-1 1.73205,-1 0,-2 1.73205,1 1.73206,-1 0,2 1.73205,1 1.73205,-1 0,-2 1.73205,1 1.73205,-1 0,2 1.73205,1 -1.73205,1 0,2 1.73205,1 1.73205,-1 0,2 1.73205,1 -1.73205,1 0,2 -1.73205,-1 -1.73205,1 0,2 1.73205,1 -1.73205,1 0,2 1.73205,1 1.73205,-1 0,2 1.73205,1 1.73205,-1 0,-2 1.73205,1 1.73205,-1 0,2 1.73205,1 -1.73205,1 0,2 1.73205,1 1.73206,-1 0,2 1.73205,1 -1.73205,1 0,2 -1.73206,-1 -1.73205,1 0,2 1.73205,1 -1.73205,1 0,2 -1.73205,-1 -1.73205,1 0,-2 -1.73205,-1 -1.73205,1 0,2 -1.73205,-1 -1.73205,1 0,2 1.73205,1 -1.73205,1 0,2 1.73205,1 1.73205,-1 0,2 1.73205,1 -1.73205,1 0,2 -1.73205,-1 -1.73205,1 0,2 1.73205,1 -1.73205,1 0,2 -1.73205,-1 -1.73205,1 0,-2 -1.73205,-1 -1.73205,1 0,2 -1.73206,-1 -1.73205,1 0,-2 -1.73205,-1 1.73205,-1 0,-2 -1.73205,-1 -1.73205,1 0,-2 -1.73205,-1 -1.73205,1 0,2 -1.73205,-1 -1.73205,1 0,2 1.73205,1 -1.73205,1 0,2 -1.73205,-1 -1.73205,1 0,-2 -1.73205,-1 -1.73205,1 0,2 -1.73205,-1 -1.73206,1 0,2 1.73206,1 -1.73206,1 0,2 1.73206,1 1.73205,-1 0,2 1.73205,1 -1.73205,1 0,2 -1.73205,-1 -1.73206,1 0,2 1.73206,1 -1.73206,1 0,2 1.73206,1 1.73205,-1 0,2 1.73205,1 1.73205,-1 0,-2 1.73205,1 1.73205,-1 0,2 1.73205,1 -1.73205,1 0,2 1.73205,1 1.73205,-1 0,2 1.73205,1 -1.73205,1 0,2 -1.73205,-1 -1.73205,1 0,2 1.73205,1 -1.73205,1 0,2 -1.73205,-1 -1.73205,1 0,-2 -1.73205,-1 -1.73205,1 0,2 -1.73205,-1 -1.73206,1 0,2 1.73206,1 -1.73206,1 0,2 1.73206,1 1.73205,-1 0,2 1.73205,1 -1.73205,1 0,2 -1.73205,-1 -1.73206,1 0,2 1.73206,1 -1.73206,1 0,2 -1.73205,-1 -1.73205,1 0,-2 -1.73205,-1 -1.73205,1 0,2 -1.73205,-1 -1.73205,1 0,-2 -1.73205,-1 1.73205,-1 0,-2 -1.73205,-1 -1.73205,1 0,-2 -1.73205,-1 -1.73205,1 0,2 -1.73205,-1 -1.73206,1 0,2 1.73206,1 -1.73206,1 0,2 -1.73205,-1 -1.73205,1 0,-2 -1.73205,-1 -1.73205,1 0,2 -1.73205,-1 -1.73205,1 0,-2 -1.73205,-1 1.73205,-1 0,-2 -1.73205,-1 -1.73205,1 0,-2 -1.73205,-1 1.73205,-1 0,-2 1.73205,1 1.73205,-1 0,-2 -1.73205,-1 1.73205,-1 0,-2 -1.73205,-1 -1.73205,1 0,-2 -1.73205,-1 -1.73205,1 0,2 -1.73205,-1 -1.73205,1 0,-2 -1.73206,-1 1.73206,-1 0,-2 -1.73206,-1 -1.73205,1 0,-2 -1.73205,-1 -1.73205,1 0,2 -1.73205,-1 -1.73205,1 0,2 1.73205,1 -1.73205,1 0,2 -1.73205,-1 -1.73205,1 0,-2 -1.73205,-1 -1.73205,1 0,2 -1.73205,-1 -1.73205,1 0,2 1.73205,1 -1.73205,1 0,2 1.73205,1 1.73205,-1 0,2 1.73205,1 -1.73205,1 0,2 -1.73205,-1 -1.73205,1 0,2 1.73205,1 -1.73205,1 0,2 -1.73206,-1 -1.73205,1 0,-2 -1.73205,-1 -1.73205,1 0,2 -1.73205,-1 -1.73205,1 0,-2 -1.73205,-1 1.73205,-1 0,-2 -1.73205,-1 -1.73205,1 0,-2 -1.73205,-1 -1.73205,1 0,2 -1.73205,-1 -1.73205,1 0,2 1.73205,1 -1.73205,1 0,2 -1.73206,-1 -1.73205,1 0,-2 -1.73205,-1 -1.73205,1 0,2 -1.73205,-1 -1.73205,1 0,2 1.73205,1 -1.73205,1 0,2 1.73205,1 1.73205,-1 0,2 1.73205,1 -1.73205,1 0,2 -1.73205,-1 -1.73205,1 0,2 1.73205,1 -1.73205,1 0,2 1.73205,1 1.73205,-1 0,2 1.73205,1 1.73205,-1 0,-2 1.73205,1 1.73206,-1 0,2 1.73205,1 -1.73205,1 0,2 1.73205,1 1.73205,-1 0,2 1.73205,1 -1.73205,1 0,2 -1.73205,-1 -1.73205,1 0,2 1.73205,1 -1.73205,1 0,2 -1.73206,-1 -1.73205,1 0,-2 -1.73205,-1 -1.73205,1 0,2 -1.73205,-1 -1.73205,1 0,2 1.73205,1 -1.73205,1 0,2 1.73205,1 1.73205,-1 0,2 1.73205,1 -1.73205,1 0,2 -1.73205,-1 -1.73205,1 0,2 1.73205,1 -1.73205,1 0,2 1.73205,1 1.73205,-1 0,2 1.73205,1 1.73205,-1 0,-2 1.73205,1 1.73206,-1 0,2 1.73205,1 -1.73205,1 0,2 1.73205,1 1.73205,-1 0,2 1.73205,1 1.73205,-1 0,-2 1.73205,1 1.73205,-1 0,-2 -1.73205,-1 1.73205,-1 0,-2 1.73205,1 1.73205,-1 0,2 1.73205,1 1.73205,-1 0,-2 1.73205,1 1.73206,-1 0,2 1.73205,1 -1.73205,1 0,2 1.73205,1 1.73205,-1 0,2 1.73205,1 -1.73205,1 0,2 -1.73205,-1 -1.73205,1 0,2 1.73205,1 -1.73205,1 0,2 1.73205,1 1.73205,-1 0,2 1.73205,1 1.73205,-1 0,-2 1.73205,1 1.73205,-1 0,2 1.73205,1 -1.73205,1 0,2 1.73205,1 1.73205,-1 0,2 1.73205,1 -1.73205,1 0,2 -1.73205,-1 -1.73205,1 0,2 1.73205,1 -1.73205,1 0,2 -1.73205,-1 -1.73205,1 0,-2 -1.73205,-1 -1.73205,1 0,2 -1.73205,-1 -1.73205,1 0,2 1.73205,1 -1.73205,1 0,2 1.73205,1 1.73205,-1 0,2 1.73205,1 -1.73205,1 0,2 -1.73205,-1 -1.73205,1 0,2 1.73205,1 -1.73205,1 0,2 -1.73206,-1 -1.73205,1 0,-2 -1.73205,-1 -1.73205,1 0,2 -1.73205,-1 -1.73205,1 0,-2 -1.73205,-1 1.73205,-1 0,-2 -1.73205,-1 -1.73205,1 0,-2 -1.73205,-1 -1.73205,1 0,2 -1.73205,-1 -1.73205,1 0,2 1.73205,1 -1.73205,1 0,2 -1.73206,-1 -1.73205,1 0,-2 -1.73205,-1 -1.73205,1 0,2 -1.73205,-1 -1.73205,1 0,2 1.73205,1 -1.73205,1 0,2 1.73205,1 1.73205,-1 0,2 1.73205,1 -1.73205,1 0,2 -1.73205,-1 -1.73205,1 0,2 1.73205,1 -1.73205,1 0,2 1.73205,1 1.73205,-1 0,2 1.73205,1 1.73205,-1 0,-2 1.73205,1 1.73206,-1 0,2 1.73205,1 -1.73205,1 0,2 1.73205,1 1.73205,-1 0,2 1.73205,1 -1.73205,1 0,2 -1.73205,-1 -1.73205,1 0,2 1.73205,1 -1.73205,1 0,2 -1.73206,-1 -1.73205,1 0,-2 -1.73205,-1 -1.73205,1 0,2 -1.73205,-1 -1.73205,1 0,2 1.73205,1 -1.73205,1 0,2 1.73205,1 1.73205,-1 0,2 1.73205,1 -1.73205,1 0,2 -1.73205,-1 -1.73205,1 0,2 1.73205,1 -1.73205,1 0,2 -1.73205,-1 -1.73205,1 0,-2 -1.73205,-1 -1.73205,1 0,2 -1.73205,-1 -1.73205,1 0,-2 -1.73205,-1 1.73205,-1 0,-2 -1.73205,-1 -1.73206,1 0,-2 -1.73205,-1 -1.73205,1 0,2 -1.73205,-1 -1.73205,1 0,2 1.73205,1 -1.73205,1 0,2 -1.73205,-1 -1.73205,1 0,-2 -1.73205,-1 -1.73205,1 0,2 -1.73205,-1 -1.73205,1 0,-2 -1.73205,-1 1.73205,-1 0,-2 -1.73205,-1 -1.73206,1 0,-2 -1.73205,-1 1.73205,-1 0,-2 1.73206,1 1.73205,-1 0,-2 -1.73205,-1 1.73205,-1 0,-2 -1.73205,-1 -1.73206,1 0,-2 -1.73205,-1 -1.73205,1 0,2 -1.73205,-1 -1.73205,1 0,-2 -1.73205,-1 1.73205,-1 0,-2 -1.73205,-1 -1.73205,1 0,-2 -1.73205,-1 -1.73205,1 0,2 -1.73205,-1 -1.73205,1 0,2 1.73205,1 -1.73205,1 0,2 -1.73205,-1 -1.73206,1 0,-2 -1.73205,-1 -1.73205,1 0,2 -1.73205,-1 -1.73205,1 0,2 1.73205,1 -1.73205,1 0,2 1.73205,1 1.73205,-1 0,2 1.73205,1 -1.73205,1 0,2 -1.73205,-1 -1.73205,1 0,2 1.73205,1 -1.73205,1 0,2 -1.73205,-1 -1.73205,1 0,-2 -1.73205,-1 -1.73205,1 0,2 -1.73205,-1 -1.73205,1 0,-2 -1.73205,-1 1.73205,-1 0,-2 -1.73205,-1 -1.73205,1 0,-2 -1.73206,-1 -1.73205,1 0,2 -1.73205,-1 -1.73205,1 0,2 1.73205,1 -1.73205,1 0,2 -1.73205,-1 -1.73205,1 0,-2 -1.73205,-1 -1.73205,1 0,2 -1.73205,-1 -1.73205,1 0,-2 -1.73205,-1 1.73205,-1 0,-2 -1.73205,-1 -1.73205,1 0,-2 -1.73206,-1 1.73206,-1 0,-2 1.73205,1 1.73205,-1 0,-2 -1.73205,-1 1.73205,-1 0,-2 -1.73205,-1 -1.73205,1 0,-2 -1.73206,-1 -1.73205,1 0,2 -1.73205,-1 -1.73205,1 0,-2 -1.73205,-1 1.73205,-1 0,-2 -1.73205,-1 -1.73205,1 0,-2 -1.73205,-1 1.73205,-1 0,-2 1.73205,1 1.73205,-1 0,-2 -1.73205,-1 1.73205,-1 0,-2 1.73205,1 1.73205,-1 0,2 1.73205,1 1.73206,-1 0,-2 1.73205,1 1.73205,-1 0,-2 -1.73205,-1 1.73205,-1 0,-2 -1.73205,-1 -1.73205,1 0,-2 -1.73206,-1 1.73206,-1 0,-2 1.73205,1 1.73205,-1 0,-2 -1.73205,-1 1.73205,-1 0,-2 -1.73205,-1 -1.73205,1 0,-2 -1.73206,-1 -1.73205,1 0,2 -1.73205,-1 -1.73205,1 0,-2 -1.73205,-1 1.73205,-1 0,-2 -1.73205,-1 -1.73205,1 0,-2 -1.73205,-1 -1.73205,1 0,2 -1.73205,-1 -1.73205,1 0,2 1.73205,1 -1.73205,1 0,2 -1.73205,-1 -1.73205,1 0,-2 -1.73205,-1 -1.73206,1 0,2 -1.73205,-1 -1.73205,1 0,-2 -1.73205,-1 1.73205,-1 0,-2 -1.73205,-1 -1.73205,1 0,-2 -1.73205,-1 1.73205,-1 0,-2 1.73205,1 1.73205,-1 0,-2 -1.73205,-1 1.73205,-1 0,-2 -1.73205,-1 -1.73205,1 0,-2 -1.73205,-1 -1.73205,1 0,2 -1.73205,-1 -1.73205,1 0,-2 -1.73205,-1 1.73205,-1 0,-2 -1.73205,-1 -1.73205,1 0,-2 -1.73205,-1 -1.73206,1 0,2 -1.73205,-1 -1.73205,1 0,2 1.73205,1 -1.73205,1 0,2 -1.73205,-1 -1.73205,1 0,-2 -1.73205,-1 -1.73205,1 0,2 -1.73205,-1 -1.73205,1 0,2 1.73205,1 -1.73205,1 0,2 1.73205,1 1.73205,-1 0,2 1.73205,1 -1.73205,1 0,2 -1.73205,-1 -1.73205,1 0,2 1.73205,1 -1.73205,1 0,2 -1.73205,-1 -1.73205,1 0,-2 -1.73205,-1 -1.73206,1 0,2 -1.73205,-1 -1.73205,1 0,-2 -1.73205,-1 1.73205,-1 0,-2 -1.73205,-1 -1.73205,1 0,-2 -1.73205,-1 -1.73205,1 0,2 -1.73205,-1 -1.73205,1 0,2 1.73205,1 -1.73205,1 0,2 -1.73205,-1 -1.73205,1 0,-2 -1.73205,-1 -1.73205,1 0,2 -1.73206,-1 -1.73205,1 0,2 1.73205,1 -1.73205,1 0,2 1.73205,1 1.73206,-1 0,2 1.73205,1 -1.73205,1 0,2 -1.73206,-1 -1.73205,1 0,2 1.73205,1 -1.73205,1 0,2 1.73205,1 1.73206,-1 0,2 1.73205,1 1.73205,-1 0,-2 1.73205,1 1.73205,-1 0,2 1.73205,1 -1.73205,1 0,2 1.73205,1 1.73205,-1 0,2 1.73205,1 -1.73205,1 0,2 -1.73205,-1 -1.73205,1 0,2 1.73205,1 -1.73205,1 0,2 -1.73205,-1 -1.73205,1 0,-2 -1.73205,-1 -1.73205,1 0,2 -1.73206,-1 -1.73205,1 0,2 1.73205,1 -1.73205,1 0,2 1.73205,1 1.73206,-1 0,2 1.73205,1 -1.73205,1 0,2 -1.73206,-1 -1.73205,1 0,2 1.73205,1 -1.73205,1 0,2 -1.73205,-1 -1.73205,1 0,-2 -1.73205,-1 -1.73205,1 0,2 -1.73205,-1 -1.73205,1 0,-2 -1.73205,-1 1.73205,-1 0,-2 -1.73205,-1 -1.73205,1 0,-2 -1.73205,-1 -1.73205,1 0,2 -1.73206,-1 -1.73205,1 0,2 1.73205,1 -1.73205,1 0,2 -1.73205,-1 -1.73205,1 0,-2 -1.73205,-1 -1.73205,1 0,2 -1.73205,-1 -1.73205,1 0,-2 -1.73205,-1 1.73205,-1 0,-2 -1.73205,-1 -1.73205,1 0,-2 -1.73205,-1 1.73205,-1 0,-2 1.73205,1 1.73205,-1 0,-2 -1.73205,-1 1.73205,-1 0,-2 -1.73205,-1 -1.73205,1 0,-2 -1.73205,-1 -1.73205,1 0,2 -1.73205,-1 -1.73206,1 0,-2 -1.73205,-1 1.73205,-1 0,-2 -1.73205,-1 -1.73205,1 0,-2 -1.73205,-1 -1.73205,1 0,2 -1.73205,-1 -1.73205,1 0,2 1.73205,1 -1.73205,1 0,2 -1.73205,-1 -1.73205,1 0,-2 -1.73205,-1 -1.73205,1 0,2 -1.73205,-1 -1.73206,1 0,2 1.73206,1 -1.73206,1 0,2 1.73206,1 1.73205,-1 0,2 1.73205,1 -1.73205,1 0,2 -1.73205,-1 -1.73206,1 0,2 1.73206,1 -1.73206,1 0,2 -1.73205,-1 -1.73205,1 0,-2 -1.73205,-1 -1.73205,1 0,2 -1.73205,-1 -1.73205,1 0,-2 -1.73205,-1 1.73205,-1 0,-2 -1.73205,-1 -1.73205,1 0,-2 -1.73205,-1 -1.73205,1 0,2 -1.73205,-1 -1.73206,1 0,2 1.73206,1 -1.73206,1 0,2 -1.73205,-1 -1.73205,1 0,-2 -1.73205,-1 -1.73205,1 0,2 -1.73205,-1 -1.73205,1 0,-2 -1.73205,-1 1.73205,-1 0,-2 -1.73205,-1 -1.73205,1 0,-2 -1.73205,-1 1.73205,-1 0,-2 1.73205,1 1.73205,-1 0,-2 -1.73205,-1 1.73205,-1 0,-2 -1.73205,-1 -1.73205,1 0,-2 -1.73205,-1 -1.73205,1 0,2 -1.73205,-1 -1.73205,1 0,-2 -1.73206,-1 1.73206,-1 0,-2 -1.73206,-1 -1.73205,1 0,-2 -1.73205,-1 1.73205,-1 0,-2 1.73205,1 1.73206,-1 0,-2 -1.73206,-1 1.73206,-1 0,-2 1.73205,1 1.73205,-1 0,2 1.73205,1 1.73205,-1 0,-2 1.73205,1 1.73205,-1 0,-2 -1.73205,-1 1.73205,-1 0,-2 -1.73205,-1 -1.73205,1 0,-2 -1.73205,-1 1.73205,-1 0,-2 1.73205,1 1.73205,-1 0,-2 -1.73205,-1 1.73205,-1 0,-2 -1.73205,-1 -1.73205,1 0,-2 -1.73205,-1 -1.73205,1 0,2 -1.73205,-1 -1.73205,1 0,-2 -1.73206,-1 1.73206,-1 0,-2 -1.73206,-1 -1.73205,1 0,-2 -1.73205,-1 -1.73205,1 0,2 -1.73205,-1 -1.73205,1 0,2 1.73205,1 -1.73205,1 0,2 -1.73205,-1 -1.73205,1 0,-2 -1.73205,-1 -1.73205,1 0,2 -1.73205,-1 -1.73205,1 0,-2 -1.73206,-1 1.73206,-1 0,-2 -1.73206,-1 -1.73205,1 0,-2 -1.73205,-1 1.73205,-1 0,-2 1.73205,1 1.73206,-1 0,-2 -1.73206,-1 1.73206,-1 0,-2 -1.73206,-1 -1.73205,1 0,-2 -1.73205,-1 -1.73205,1 0,2 -1.73205,-1 -1.73205,1 0,-2 -1.73205,-1 1.73205,-1 0,-2 -1.73205,-1 -1.73205,1 0,-2 -1.73205,-1 1.73205,-1 0,-2 1.73205,1 1.73205,-1 0,-2 -1.73205,-1 1.73205,-1 0,-2 1.73205,1 1.73205,-1 0,2 1.73205,1 1.73205,-1 0,-2 1.73205,1 1.73206,-1 0,-2 -1.73206,-1 1.73206,-1 0,-2 -1.73206,-1 -1.73205,1 0,-2 -1.73205,-1 1.73205,-1 0,-2 1.73205,1 1.73206,-1 0,-2 -1.73206,-1 1.73206,-1 0,-2 1.73205,1 1.73205,-1 0,2 1.73205,1 1.73205,-1 0,-2 1.73205,1 1.73205,-1 0,2 1.73205,1 -1.73205,1 0,2 1.73205,1 1.73205,-1 0,2 1.73205,1 1.73205,-1 0,-2 1.73205,1 1.73206,-1 0,-2 -1.73206,-1 1.73206,-1 0,-2 1.73205,1 1.73205,-1 0,2 1.73205,1 1.73205,-1 0,-2 1.73205,1 1.73205,-1 0,-2 -1.73205,-1 1.73205,-1 0,-2 -1.73205,-1 -1.73205,1 0,-2 -1.73205,-1 1.73205,-1 0,-2 1.73205,1 1.73205,-1 0,-2 -1.73205,-1 1.73205,-1 0,-2 -1.73205,-1 -1.73205,1 0,-2 -1.73205,-1 -1.73205,1 0,2 -1.73205,-1 -1.73205,1 0,-2 -1.73206,-1 1.73206,-1 0,-2 -1.73206,-1 -1.73205,1 0,-2 -1.73205,-1 1.73205,-1 0,-2 1.73205,1 1.73206,-1 0,-2 -1.73206,-1 1.73206,-1 0,-2 1.73205,1 1.73205,-1 0,2 1.73205,1 1.73205,-1 0,-2 1.73205,1 1.73205,-1 0,-2 -1.73205,-1 1.73205,-1 0,-2 -1.73205,-1 -1.73205,1 0,-2 -1.73205,-1 1.73205,-1 0,-2 1.73205,1 1.73205,-1 0,-2 -1.73205,-1 1.73205,-1 0,-2 -1.73205,-1 -1.73205,1 0,-2 -1.73205,-1 -1.73205,1 0,2 -1.73205,-1 -1.73205,1 0,-2 -1.73206,-1 1.73206,-1 0,-2 -1.73206,-1 -1.73205,1 0,-2 -1.73205,-1 -1.73205,1 0,2 -1.73205,-1 -1.73205,1 0,2 1.73205,1 -1.73205,1 0,2 -1.73205,-1 -1.73205,1 0,-2 -1.73205,-1 -1.73205,1 0,2 -1.73205,-1 -1.73205,1 0,-2 -1.73206,-1 1.73206,-1 0,-2 -1.73206,-1 -1.73205,1 0,-2 -1.73205,-1 1.73205,-1 0,-2 1.73205,1 1.73206,-1 0,-2 -1.73206,-1 1.73206,-1 0,-2 -1.73206,-1 -1.73205,1 0,-2 -1.73205,-1 -1.73205,1 0,2 -1.73205,-1 -1.73205,1 0,-2 -1.73205,-1 1.73205,-1 0,-2 -1.73205,-1 -1.73205,1 0,-2 -1.73205,-1 -1.73205,1 0,2 -1.73205,-1 -1.73205,1 0,2 1.73205,1 -1.73205,1 0,2 -1.73206,-1 -1.73205,1 0,-2 -1.73205,-1 -1.73205,1 0,2 -1.73205,-1 -1.73205,1 0,2 1.73205,1 -1.73205,1 0,2 1.73205,1 1.73205,-1 0,2 1.73205,1 -1.73205,1 0,2 -1.73205,-1 -1.73205,1 0,2 1.73205,1 -1.73205,1 0,2 -1.73205,-1 -1.73205,1 0,-2 -1.73205,-1 -1.73205,1 0,2 -1.73205,-1 -1.73205,1 0,-2 -1.73205,-1 1.73205,-1 0,-2 -1.73205,-1 -1.73206,1 0,-2 -1.73205,-1 -1.73205,1 0,2 -1.73205,-1 -1.73205,1 0,2 1.73205,1 -1.73205,1 0,2 -1.73205,-1 -1.73205,1 0,-2 -1.73205,-1 -1.73205,1 0,2 -1.73205,-1 -1.73205,1 0,-2 -1.73205,-1 1.73205,-1 0,-2 -1.73205,-1 -1.73206,1 0,-2 -1.73205,-1 1.73205,-1 0,-2 1.73206,1 1.73205,-1 0,-2 -1.73205,-1 1.73205,-1 0,-2 -1.73205,-1 -1.73206,1 0,-2 -1.73205,-1 -1.73205,1 0,2 -1.73205,-1 -1.73205,1 0,-2 -1.73205,-1 1.73205,-1 0,-2 -1.73205,-1 -1.73205,1 0,-2 -1.73205,-1 1.73205,-1 0,-2 1.73205,1 1.73205,-1 0,-2 -1.73205,-1 1.73205,-1 0,-2 1.73205,1 1.73205,-1 0,2 1.73205,1 1.73205,-1 0,-2 1.73206,1 1.73205,-1 0,-2 -1.73205,-1 1.73205,-1 0,-2 -1.73205,-1 -1.73206,1 0,-2 -1.73205,-1 1.73205,-1 0,-2 1.73206,1 1.73205,-1 0,-2 -1.73205,-1 1.73205,-1 0,-2 -1.73205,-1 -1.73206,1 0,-2 -1.73205,-1 -1.73205,1 0,2 -1.73205,-1 -1.73205,1 0,-2 -1.73205,-1 1.73205,-1 0,-2 -1.73205,-1 -1.73205,1 0,-2 -1.73205,-1 -1.73205,1 0,2 -1.73205,-1 -1.73205,1 0,2 1.73205,1 -1.73205,1 0,2 -1.73205,-1 -1.73205,1 0,-2 -1.73206,-1 -1.73205,1 0,2 -1.73205,-1 -1.73205,1 0,-2 -1.73205,-1 1.73205,-1 0,-2 -1.73205,-1 -1.73205,1 0,-2 -1.73205,-1 1.73205,-1 0,-2 1.73205,1 1.73205,-1 0,-2 -1.73205,-1 1.73205,-1 0,-2 -1.73205,-1 -1.73205,1 0,-2 -1.73205,-1 -1.73205,1 0,2 -1.73205,-1 -1.73205,1 0,-2 -1.73205,-1 1.73205,-1 0,-2 -1.73205,-1 -1.73205,1 0,-2 -1.73206,-1 1.73206,-1 0,-2 1.73205,1 1.73205,-1 0,-2 -1.73205,-1 1.73205,-1 0,-2 1.73205,1 1.73205,-1 0,2 1.73205,1 1.73205,-1 0,-2 1.73205,1 1.73205,-1 0,-2 -1.73205,-1 1.73205,-1 0,-2 -1.73205,-1 -1.73205,1 0,-2 -1.73205,-1 1.73205,-1 0,-2 1.73205,1 1.73205,-1 0,-2 -1.73205,-1 1.73205,-1 0,-2 1.73205,1 1.73205,-1 0,2 1.73205,1 1.73206,-1 0,-2 1.73205,1 1.73205,-1 0,2 1.73205,1 -1.73205,1 0,2 1.73205,1 1.73205,-1 0,2 1.73205,1 1.73205,-1 0,-2 1.73205,1 1.73205,-1 0,-2 -1.73205,-1 1.73205,-1 0,-2 1.73205,1 1.73205,-1 0,2 1.73205,1 1.73205,-1 0,-2 1.73206,1 1.73205,-1 0,-2 -1.73205,-1 1.73205,-1 0,-2 -1.73205,-1 -1.73206,1 0,-2 -1.73205,-1 1.73205,-1 0,-2 1.73206,1 1.73205,-1 0,-2 -1.73205,-1 1.73205,-1 0,-2 -1.73205,-1 -1.73206,1 0,-2 -1.73205,-1 -1.73205,1 0,2 -1.73205,-1 -1.73205,1 0,-2 -1.73205,-1 1.73205,-1 0,-2 -1.73205,-1 -1.73205,1 0,-2 -1.73205,-1 1.73205,-1 0,-2 1.73205,1 1.73205,-1 0,-2 -1.73205,-1 1.73205,-1 0,-2 1.73205,1 1.73205,-1 0,2 1.73205,1 1.73205,-1 0,-2 1.73206,1 1.73205,-1 0,-2 -1.73205,-1 1.73205,-1 0,-2 -1.73205,-1 -1.73206,1 0,-2 -1.73205,-1 1.73205,-1 0,-2 1.73206,1 1.73205,-1 0,-2 -1.73205,-1 1.73205,-1 0,-2 1.73205,1 1.73205,-1 0,2 1.73205,1 1.73205,-1 0,-2 1.73205,1 1.73205,-1 0,2 1.73205,1 -1.73205,1 0,2 1.73205,1 1.73205,-1 0,2 1.73205,1 1.73205,-1 0,-2 1.73206,1 1.73205,-1 0,-2 -1.73205,-1 1.73205,-1 0,-2 1.73205,1 1.73205,-1 0,2 1.73205,1 1.73205,-1 0,-2 1.73205,1 1.73205,-1 0,2 1.73205,1 -1.73205,1 0,2 1.73205,1 1.73205,-1 0,2 1.73205,1 -1.73205,1 0,2 -1.73205,-1 -1.73205,1 0,2 1.73205,1 -1.73205,1 0,2 1.73205,1 1.73205,-1 0,2 1.73205,1 1.73205,-1 0,-2 1.73205,1 1.73206,-1 0,2 1.73205,1 -1.73205,1 0,2 1.73205,1 1.73205,-1 0,2 1.73205,1 1.73205,-1 0,-2 1.73205,1 1.73205,-1 0,-2 -1.73205,-1 1.73205,-1 0,-2 1.73205,1 1.73205,-1 0,2 1.73205,1 1.73205,-1 0,-2 1.73205,1 1.73206,-1 0,-2 -1.73206,-1 1.73206,-1 0,-2 -1.73206,-1 -1.73205,1 0,-2 -1.73205,-1 1.73205,-1 0,-2 1.73205,1 1.73206,-1 0,-2 -1.73206,-1 1.73206,-1 0,-2 1.73205,1 1.73205,-1 0,2 1.73205,1 1.73205,-1 0,-2 1.73205,1 1.73205,-1 0,2 1.73205,1 -1.73205,1 0,2 1.73205,1 1.73205,-1 0,2 1.73205,1 1.73205,-1 0,-2 1.73205,1 1.73206,-1 0,-2 -1.73206,-1 1.73206,-1 0,-2 1.73205,1 1.73205,-1 0,2 1.73205,1 1.73205,-1 0,-2 1.73205,1 1.73205,-1 0,-2 -1.73205,-1 1.73205,-1 0,-2 -1.73205,-1 -1.73205,1 0,-2 -1.73205,-1 1.73205,-1 0,-2 1.73205,1 1.73205,-1 0,-2 -1.73205,-1 1.73205,-1 0,-2 -1.73205,-1 -1.73205,1 0,-2 -1.73205,-1 -1.73205,1 0,2 -1.73205,-1 -1.73205,1 0,-2 -1.73206,-1 1.73206,-1 0,-2 -1.73206,-1 -1.73205,1 0,-2 -1.73205,-1 1.73205,-1 0,-2 1.73205,1 1.73206,-1 0,-2 -1.73206,-1 1.73206,-1 0,-2 1.73205,1 1.73205,-1 0,2 1.73205,1 1.73205,-1 0,-2 1.73205,1 1.73205,-1 0,-2 -1.73205,-1 1.73205,-1 0,-2 -1.73205,-1 -1.73205,1 0,-2 -1.73205,-1 1.73205,-1 0,-2 1.73205,1 1.73205,-1 0,-2 -1.73205,-1 1.73205,-1 0,-2 -1.73205,-1 -1.73205,1 0,-2 -1.73205,-1 -1.73205,1 0,2 -1.73205,-1 -1.73205,1 0,-2 -1.73206,-1 1.73206,-1 0,-2 -1.73206,-1 -1.73205,1 0,-2 -1.73205,-1 -1.73205,1 0,2 -1.73205,-1 -1.73205,1 0,2 1.73205,1 -1.73205,1 0,2 -1.73205,-1 -1.73205,1 0,-2 -1.73205,-1 -1.73205,1 0,2 -1.73205,-1 -1.73205,1 0,-2 -1.73206,-1 1.73206,-1 0,-2 -1.73206,-1 -1.73205,1 0,-2 -1.73205,-1 1.73205,-1 0,-2 1.73205,1 1.73206,-1 0,-2 -1.73206,-1 1.73206,-1 0,-2 -1.73206,-1 -1.73205,1 0,-2 -1.73205,-1 -1.73205,1 0,2 -1.73205,-1 -1.73205,1 0,-2 -1.73205,-1 1.73205,-1 0,-2 -1.73205,-1 -1.73205,1 0,-2 -1.73205,-1 1.73205,-1 0,-2 1.73205,1 1.73205,-1 0,-2 -1.73205,-1 1.73205,-1 0,-2 1.73205,1 1.73205,-1 0,2 1.73205,1 1.73205,-1 0,-2 1.73205,1 1.73206,-1 0,-2 -1.73206,-1 1.73206,-1 0,-2 -1.73206,-1 -1.73205,1 0,-2 -1.73205,-1 1.73205,-1 0,-2 1.73205,1 1.73206,-1 0,-2 -1.73206,-1 1.73206,-1 0,-2 1.73205,1 1.73205,-1 0,2 1.73205,1 1.73205,-1 0,-2 1.73205,1 1.73205,-1 0,2 1.73205,1 -1.73205,1 0,2 1.73205,1 1.73205,-1 0,2 1.73205,1 1.73205,-1 0,-2 1.73205,1 1.73206,-1 0,-2 -1.73206,-1 1.73206,-1 0,-2 1.73205,1 1.73205,-1 0,2 1.73205,1 1.73205,-1 0,-2 1.73205,1 1.73205,-1 0,-2 -1.73205,-1 1.73205,-1 0,-2 -1.73205,-1 -1.73205,1 0,-2 -1.73205,-1 1.73205,-1 0,-2 1.73205,1 1.73205,-1 0,-2 -1.73205,-1 1.73205,-1 0,-2 -1.73205,-1 -1.73205,1 0,-2 -1.73205,-1 -1.73205,1 0,2 -1.73205,-1 -1.73205,1 0,-2 -1.73206,-1 1.73206,-1 0,-2 -1.73206,-1 -1.73205,1 0,-2 -1.73205,-1 1.73205,-1 0,-2 1.73205,1 1.73206,-1 0,-2 -1.73206,-1 1.73206,-1 0,-2 1.73205,1 1.73205,-1 0,2 1.73205,1 1.73205,-1 0,-2 1.73205,1 1.73205,-1 0,-2 -1.73205,-1 1.73205,-1 0,-2 -1.73205,-1 -1.73205,1 0,-2 -1.73205,-1 1.73205,-1 0,-2 1.73205,1 1.73205,-1 0,-2 -1.73205,-1 1.73205,-1 0,-2"
     style="fill:none;stroke:#000000;stroke-width:1px;stroke-linecap:butt;stroke-linejoin:miter;stroke-opacity:1"
     inkscape:connector-curvature="0" />
</svg>
